<svg width="153" height="57" viewBox="0 0 153 57" fill="none" xmlns="http://www.w3.org/2000/svg">
<rect x="2.5" y="2.5" width="148" height="52" rx="12.5" fill="#FEF3DD" stroke="#664122" stroke-width="5"/>
<rect x="9" y="9" width="135" height="39" rx="10" fill="#87DCB2"/>
<rect x="9" y="9" width="135" height="39" rx="10" stroke="#664122"/>
<path d="M31.504 40.056C28.08 37.976 26.608 32.728 26.608 29.016C26.704 24.248 30.416 16.504 35.952 16.504C38.064 16.504 40.816 17.912 41.264 20.184C41.424 21.048 41.2 21.816 40.496 22.36C40.08 22.68 39.664 22.84 39.184 22.84C38.864 22.84 38.544 22.744 38.192 22.584C37.808 22.392 37.456 22.136 37.072 21.912C36.688 21.688 36.368 21.592 36.08 21.592C34.512 21.592 32.848 24.888 32.4 26.104C31.312 29.144 31.664 32.024 33.424 34.712C33.872 35.416 34.48 35.864 35.312 35.96C35.632 35.992 36.016 35.928 36.336 35.768C37.008 35.48 37.648 35.096 38.256 34.712C38.704 34.424 39.152 34.264 39.6 34.264C39.888 34.264 40.176 34.328 40.464 34.456C41.68 34.968 42.128 36.376 41.488 37.56C40.848 38.744 39.216 39.704 38.064 40.344C37.072 40.888 36.08 41.144 35.12 41.144C33.872 41.144 32.688 40.76 31.504 40.056ZM55.4758 25.304C56.4038 26.552 56.5318 28.312 56.6278 29.816C56.5958 32.792 55.5078 35.224 53.0758 36.984C51.7958 37.88 50.3878 38.456 48.8198 38.328C46.0358 38.136 44.1158 36.696 43.0598 34.104C42.3558 32.312 42.3558 30.456 42.7398 28.6C43.0598 27.064 43.6358 25.656 44.6598 24.44C46.2278 22.52 48.2758 21.976 50.6438 22.296C52.6918 22.584 54.2598 23.672 55.4758 25.304ZM52.2118 31.32C52.4358 30.488 52.4358 29.624 52.3078 28.792C52.2438 28.28 52.1478 27.8 51.7318 27.448C51.1238 26.968 50.4838 26.616 49.6838 26.552C48.6278 26.456 48.1158 26.744 47.6358 27.608C47.0598 28.6 46.8998 29.688 46.8038 30.648C46.7718 31.512 46.9318 32.184 47.2518 32.824C47.6038 33.624 48.4038 33.976 49.1398 33.976C50.6118 33.976 51.8278 32.664 52.2118 31.32ZM71.746 30.744C71.906 32.632 71.842 34.52 71.682 36.376C71.586 37.528 70.69 38.36 69.57 38.36C68.258 38.36 67.522 37.176 67.458 35.992C67.458 34.936 67.522 33.848 67.458 32.792C67.426 31.608 67.298 30.424 67.17 29.24C67.106 28.856 66.882 28.472 66.69 28.088C66.594 27.832 66.37 27.704 66.082 27.768C64.802 27.992 63.618 28.504 62.69 29.464C62.594 29.592 62.53 29.752 62.53 29.912C62.594 31.832 62.594 33.752 62.722 35.672C62.786 37.016 61.826 38.04 60.674 38.04C59.554 38.04 58.754 37.24 58.626 36.152C58.498 35 58.37 33.848 58.338 32.696C58.338 29.976 58.37 27.288 58.37 24.568C58.402 24.088 58.466 23.64 58.722 23.192C59.17 22.456 60.002 22.04 60.898 22.232C61.89 22.424 62.562 23.384 62.562 24.376C63.298 24.152 64.002 23.832 64.738 23.672C65.218 23.544 65.698 23.512 66.146 23.512C68.386 23.512 70.178 24.856 71.042 27.224C71.458 28.344 71.618 29.56 71.746 30.744ZM86.2883 17.464C87.3763 18.168 87.6643 19.448 87.0243 20.44C86.6403 20.984 86.0003 21.304 85.3283 21.304C85.0723 21.304 84.7843 21.272 84.5283 21.176C84.1443 21.048 83.7283 20.984 83.3443 21.016C82.7043 21.016 82.2243 21.336 81.9363 21.944C81.2963 23.16 80.9443 24.504 80.6883 25.848C80.8163 25.848 80.9123 25.848 81.0083 25.848C81.9043 25.848 82.8003 25.784 83.6963 25.848C84.7843 25.944 85.5843 26.808 85.5843 27.864C85.5523 28.92 84.8163 29.752 83.6963 29.88C82.6083 29.976 81.4883 30.008 80.4003 30.008C80.4003 30.296 80.3683 30.584 80.4003 30.84C80.5603 32.088 80.7523 33.368 80.9123 34.616C81.0083 35.256 81.1042 35.896 81.1683 36.536C81.2323 37.4 80.6883 38.296 79.8563 38.584C79.6003 38.68 79.3443 38.744 79.0883 38.744C78.4483 38.744 77.8723 38.456 77.4563 37.912C76.4963 36.76 76.0483 31.992 76.0163 30.584C76.0163 30.552 75.9843 30.488 75.9843 30.424C75.7923 30.456 75.6003 30.456 75.4083 30.488C74.8003 30.52 74.2243 30.488 73.7122 30.136C72.9763 29.656 72.6562 28.824 72.8483 27.992C73.0403 27.16 73.7443 26.552 74.6723 26.424C75.0883 26.392 75.5363 26.328 75.9523 26.296C76.1763 26.296 76.2083 26.2 76.2403 26.008C76.5603 24.024 77.1043 22.136 77.9363 20.312C78.9603 18.072 80.7203 16.888 83.1523 16.696C84.2723 16.6 85.3283 16.888 86.2883 17.464ZM88.6605 22.776C87.5085 22.744 86.6125 21.816 86.6125 20.664C86.6125 19.512 87.6045 18.584 88.7245 18.584C89.9085 18.616 90.8045 19.544 90.7725 20.728C90.7725 21.88 89.8125 22.776 88.6605 22.776ZM90.9645 25.944C91.0605 27.704 91.2205 34.296 91.2205 35.832C91.2205 36.184 91.1885 36.536 91.0605 36.888C90.8045 37.816 89.9405 38.392 88.9485 38.296C88.0525 38.232 87.2525 37.528 87.1565 36.6C87.0605 35.736 87.0285 34.84 86.9965 33.976C86.9645 31.448 86.9325 28.92 86.9005 26.424C86.9005 25.944 86.9965 25.496 87.2845 25.08C87.7325 24.344 88.5965 23.992 89.4605 24.184C90.2605 24.376 90.9005 25.112 90.9645 25.944ZM104.187 24.664C104.347 25.752 103.739 26.712 102.683 27C102.331 27.096 101.947 27.16 101.595 27.224C100.443 27.416 99.5468 28.024 98.8108 28.856C97.6268 30.2 97.6268 30.2 97.6908 31.992C97.7868 33.432 97.8828 34.84 97.9788 36.28C98.0108 36.792 98.0108 37.272 97.8188 37.784C97.4668 38.552 96.6668 39.064 95.8348 39.032C94.9068 38.968 94.1388 38.36 93.9468 37.464C93.7548 36.664 93.6588 35.864 93.5948 35.064C93.4028 31.928 93.2747 28.824 93.4348 25.688C93.4668 25.176 93.4348 24.696 93.4348 24.184C93.4028 23.576 93.5308 23.032 93.9148 22.552C94.4268 21.912 95.1308 21.624 95.9628 21.816C97.3068 22.104 97.5628 23.192 97.6908 24.376C97.7548 24.344 97.7868 24.344 97.8188 24.312C99.0668 23.448 100.507 23.192 101.947 23.032C103.035 22.936 103.995 23.672 104.187 24.664ZM128.665 32.056C128.697 33.176 128.729 34.328 128.665 35.448C128.633 36.088 128.473 36.728 128.249 37.368C127.929 38.328 126.937 38.808 125.913 38.616C124.953 38.392 124.217 37.4 124.281 36.376C124.409 34.328 124.312 32.312 124.121 30.296C124.089 29.784 123.929 29.304 123.801 28.824C123.641 28.408 123.449 28.312 123.001 28.376C122.457 28.44 121.977 28.6 121.625 29.048C121.337 29.432 120.985 29.816 120.825 30.232C120.089 31.928 119.513 33.688 119.161 35.512C119.065 35.896 119.097 36.28 119.033 36.664C118.873 37.656 118.105 38.424 117.145 38.488C116.121 38.552 115.225 38.008 114.969 37.016C114.777 36.376 114.777 35.704 114.713 35.032C114.617 33.56 114.521 32.056 114.425 30.584C114.361 29.912 114.233 29.24 113.945 28.632C113.657 28.12 113.465 28.024 112.889 28.184C112.729 28.248 112.536 28.28 112.377 28.376C111.417 28.984 110.489 29.624 109.817 30.552C109.721 30.68 109.657 30.872 109.689 31.032C109.753 32.568 109.849 34.136 109.945 35.672C110.009 36.856 109.273 37.784 108.153 37.944C107.097 38.072 106.105 37.336 105.913 36.216C105.753 35.32 105.689 34.424 105.657 33.528C105.529 31.416 105.401 29.336 105.305 27.224C105.273 26.36 105.273 25.528 105.273 24.664C105.305 23.608 105.945 22.744 106.873 22.552C108.089 22.296 109.177 23.096 109.337 24.344C109.369 24.664 109.369 24.952 109.401 25.336C110.553 24.472 111.929 23.864 113.401 23.864C115.321 23.864 116.793 24.984 117.657 26.648C117.721 26.744 117.753 26.84 117.817 26.936C118.073 26.68 118.297 26.392 118.521 26.168C120.057 24.536 121.977 23.864 124.153 24.184C128.025 24.792 128.601 28.856 128.665 32.056Z" fill="#FEF3DD"/>
<path d="M31.504 40.056L30.4656 41.7653L30.4737 41.7702L30.4818 41.7751L31.504 40.056ZM26.608 29.016L24.6084 28.9757L24.608 28.9959V29.016H26.608ZM41.264 20.184L43.2306 19.8198L43.2285 19.8084L43.2262 19.7971L41.264 20.184ZM40.496 22.36L41.7154 23.9453L41.7189 23.9426L40.496 22.36ZM38.192 22.584L37.2976 24.3729L37.3307 24.3894L37.3644 24.4047L38.192 22.584ZM37.072 21.912L38.0797 20.1844L38.0797 20.1844L37.072 21.912ZM32.4 26.104L30.5233 25.4126L30.5201 25.4213L30.517 25.4301L32.4 26.104ZM33.424 34.712L35.1113 33.6382L35.1044 33.6273L35.0972 33.6164L33.424 34.712ZM35.312 35.96L35.0828 37.9468L35.0979 37.9486L35.113 37.9501L35.312 35.96ZM36.336 35.768L35.5482 33.9297L35.4941 33.9529L35.4416 33.9791L36.336 35.768ZM38.256 34.712L39.324 36.403L39.3308 36.3987L39.3375 36.3944L38.256 34.712ZM40.464 34.456L39.6517 36.2836L39.6697 36.2916L39.6879 36.2993L40.464 34.456ZM41.488 37.56L43.2474 38.511L43.2474 38.511L41.488 37.56ZM38.064 40.344L39.0257 42.0977L39.0353 42.0923L38.064 40.344ZM32.5424 38.3467C31.3461 37.62 30.3436 36.2331 29.6347 34.4198C28.9347 32.6292 28.608 30.6376 28.608 29.016H24.608C24.608 31.1064 25.0173 33.5948 25.9093 35.8762C26.7924 38.1349 28.2379 40.412 30.4656 41.7653L32.5424 38.3467ZM28.6076 29.0563C28.6474 27.0809 29.4682 24.3097 30.9211 22.0555C32.3996 19.7616 34.1826 18.504 35.952 18.504V14.504C32.1854 14.504 29.3444 17.1184 27.5589 19.8885C25.7478 22.6983 24.6646 26.1831 24.6084 28.9757L28.6076 29.0563ZM35.952 18.504C36.6077 18.504 37.4567 18.7367 38.1648 19.1835C38.8755 19.6319 39.2172 20.142 39.3018 20.5709L43.2262 19.7971C42.8628 17.954 41.6045 16.6241 40.2992 15.8005C38.9913 14.9753 37.4083 14.504 35.952 14.504V18.504ZM39.2974 20.5482C39.328 20.7132 39.3039 20.7678 39.3087 20.7534C39.3107 20.7474 39.3145 20.7406 39.3165 20.7377C39.3181 20.7355 39.3083 20.7502 39.2731 20.7774L41.7189 23.9426C43.1114 22.8666 43.5036 21.2943 43.2306 19.8198L39.2974 20.5482ZM39.2766 20.7748C39.1967 20.8362 39.1632 20.8468 39.1694 20.8445C39.1718 20.8436 39.1776 20.8418 39.1844 20.8406C39.1911 20.8394 39.1919 20.84 39.184 20.84V24.84C40.1777 24.84 41.0121 24.4862 41.7154 23.9452L39.2766 20.7748ZM39.184 20.84C39.2269 20.84 39.2425 20.8468 39.2183 20.8403C39.19 20.8327 39.1283 20.8127 39.0196 20.7633L37.3644 24.4047C37.8415 24.6216 38.4604 24.84 39.184 24.84V20.84ZM39.0864 20.7951C38.987 20.7454 38.8719 20.6774 38.6986 20.5681C38.549 20.4738 38.3113 20.3195 38.0797 20.1844L36.0643 23.6396C36.2167 23.7285 36.347 23.8142 36.5654 23.9519C36.7602 24.0746 37.013 24.2306 37.2976 24.3729L39.0864 20.7951ZM38.0797 20.1844C37.5006 19.8466 36.8314 19.592 36.08 19.592V23.592C36.0401 23.592 36.0062 23.5886 35.98 23.5843C35.9541 23.5801 35.9389 23.5755 35.9355 23.5745C35.9324 23.5735 35.9414 23.5761 35.9633 23.5861C35.9853 23.5962 36.0187 23.613 36.0643 23.6396L38.0797 20.1844ZM36.08 19.592C34.9949 19.592 34.1443 20.1462 33.6066 20.6061C33.038 21.0924 32.5552 21.6989 32.1696 22.2624C31.3978 23.3899 30.7975 24.6682 30.5233 25.4126L34.2767 26.7954C34.4505 26.3238 34.9062 25.3461 35.4704 24.5216C35.7528 24.1091 36.008 23.8156 36.2065 23.6459C36.4357 23.4498 36.3811 23.592 36.08 23.592V19.592ZM30.517 25.4301C29.2166 29.0635 29.6494 32.5982 31.7508 35.8076L35.0972 33.6164C33.6786 31.4498 33.4074 29.2245 34.283 26.7779L30.517 25.4301ZM31.7367 35.7858C32.4467 36.9016 33.5467 37.7696 35.0828 37.9468L35.5412 33.9732C35.4357 33.961 35.3845 33.9345 35.348 33.9098C35.3031 33.8792 35.2188 33.8071 35.1113 33.6382L31.7367 35.7858ZM35.113 37.9501C35.8032 38.0191 36.567 37.8886 37.2304 37.5569L35.4416 33.9791C35.4563 33.9718 35.4649 33.9689 35.4668 33.9683C35.4689 33.9676 35.4683 33.9679 35.4662 33.9683C35.4641 33.9686 35.4646 33.9684 35.4691 33.9682C35.4732 33.968 35.4871 33.9675 35.511 33.9699L35.113 37.9501ZM37.1238 37.6063C37.9501 37.2522 38.702 36.7958 39.324 36.403L37.188 33.021C36.594 33.3962 36.0659 33.7078 35.5482 33.9297L37.1238 37.6063ZM39.3375 36.3944C39.5666 36.2471 39.6425 36.264 39.6 36.264V32.264C38.6615 32.264 37.8414 32.6009 37.1745 33.0296L39.3375 36.3944ZM39.6 36.264C39.5945 36.264 39.5931 36.2633 39.5981 36.2644C39.6037 36.2656 39.6212 36.27 39.6517 36.2836L41.2763 32.6284C40.7569 32.3975 40.1933 32.264 39.6 32.264V36.264ZM39.6879 36.2993C39.7268 36.3157 39.743 36.3314 39.7495 36.3385C39.7572 36.3469 39.7648 36.3586 39.7706 36.3763C39.7808 36.4076 39.7938 36.4883 39.7286 36.609L43.2474 38.511C44.4052 36.3691 43.628 33.6181 41.2401 32.6127L39.6879 36.2993ZM39.7286 36.609C39.6158 36.8176 39.3251 37.1435 38.7778 37.5487C38.2576 37.9339 37.659 38.2811 37.0927 38.5957L39.0353 42.0923C39.621 41.7669 40.4144 41.3141 41.1582 40.7633C41.8749 40.2325 42.7202 39.4864 43.2474 38.511L39.7286 36.609ZM37.1023 38.5904C36.3772 38.988 35.7134 39.144 35.12 39.144V43.144C36.4466 43.144 37.7668 42.788 39.0257 42.0976L37.1023 38.5904ZM35.12 39.144C34.3086 39.144 33.4744 38.9007 32.5262 38.3369L30.4818 41.7751C31.9016 42.6193 33.4354 43.144 35.12 43.144V39.144ZM55.4758 25.304L57.0807 24.1106L57.0795 24.109L55.4758 25.304ZM56.6278 29.816L58.6276 29.8375L58.6284 29.763L58.6237 29.6886L56.6278 29.816ZM53.0758 36.984L54.2227 38.6225L54.2356 38.6134L54.2483 38.6042L53.0758 36.984ZM48.8198 38.328L48.9825 36.3346L48.9699 36.3336L48.9574 36.3327L48.8198 38.328ZM43.0598 34.104L41.1982 34.8353L41.2028 34.847L41.2076 34.8586L43.0598 34.104ZM42.7398 28.6L40.7818 28.1921L40.7812 28.1948L42.7398 28.6ZM44.6598 24.44L46.1896 25.7283L46.1993 25.7167L46.2088 25.7051L44.6598 24.44ZM50.6438 22.296L50.9223 20.3155L50.9116 20.314L50.6438 22.296ZM52.2118 31.32L54.1348 31.8694L54.139 31.8547L54.143 31.8399L52.2118 31.32ZM52.3078 28.792L50.3232 29.0401L50.3267 29.0681L50.331 29.0961L52.3078 28.792ZM51.7318 27.448L53.0236 25.9212L52.9977 25.8993L52.971 25.8782L51.7318 27.448ZM49.6838 26.552L49.5027 28.5438L49.5135 28.5448L49.5243 28.5456L49.6838 26.552ZM47.6358 27.608L49.3653 28.6123L49.3749 28.5959L49.3841 28.5793L47.6358 27.608ZM46.8038 30.648L44.8137 30.449L44.8074 30.5114L44.8051 30.574L46.8038 30.648ZM47.2518 32.824L49.0824 32.0185L49.0626 31.9735L49.0406 31.9296L47.2518 32.824ZM53.8708 26.4974C54.383 27.1862 54.5272 28.304 54.6318 29.9434L58.6237 29.6886C58.5363 28.32 58.4245 25.9178 57.0807 24.1106L53.8708 26.4974ZM54.6279 29.7945C54.6018 32.2204 53.7573 34.022 51.9032 35.3638L54.2483 38.6042C57.2582 36.426 58.5897 33.3636 58.6276 29.8375L54.6279 29.7945ZM51.9288 35.3455C50.8739 36.084 49.9255 36.4116 48.9825 36.3346L48.657 40.3214C50.85 40.5004 52.7176 39.676 54.2227 38.6225L51.9288 35.3455ZM48.9574 36.3327C47.886 36.2589 47.0886 35.9561 46.4788 35.5064C45.8659 35.0543 45.3271 34.3684 44.9119 33.3494L41.2076 34.8586C41.8484 36.4316 42.7976 37.7617 44.1047 38.7256C45.4149 39.6919 46.9695 40.2051 48.6821 40.3233L48.9574 36.3327ZM44.9213 33.3727C44.3987 32.0425 44.3678 30.6025 44.6983 29.0052L40.7812 28.1948C40.3437 30.3095 40.3128 32.5815 41.1982 34.8353L44.9213 33.3727ZM44.6977 29.0079C44.9687 27.707 45.4309 26.6292 46.1896 25.7283L43.1299 23.1517C41.8406 24.6828 41.1508 26.421 40.7818 28.1921L44.6977 29.0079ZM46.2088 25.7051C47.2396 24.4428 48.5294 24.0285 50.3759 24.278L50.9116 20.314C48.0221 19.9235 45.2159 20.5972 43.1107 23.1749L46.2088 25.7051ZM50.3652 24.2765C51.7904 24.4769 52.9136 25.2127 53.872 26.499L57.0795 24.109C55.6059 22.1313 53.5931 20.6911 50.9223 20.3155L50.3652 24.2765ZM54.143 31.8399C54.4571 30.6732 54.4429 29.5177 54.2845 28.4879L50.331 29.0961C50.4286 29.7303 50.4144 30.3028 50.2805 30.8001L54.143 31.8399ZM54.2923 28.5439C54.2262 28.0147 54.0777 26.8131 53.0236 25.9212L50.4399 28.9748C50.3984 28.9397 50.3584 28.8951 50.3254 28.8458C50.2937 28.7983 50.2791 28.7623 50.2751 28.7514C50.272 28.743 50.2779 28.7569 50.2881 28.8077C50.2986 28.8603 50.3096 28.931 50.3232 29.0401L54.2923 28.5439ZM52.971 25.8782C52.1986 25.2684 51.1886 24.666 49.8432 24.5584L49.5243 28.5456C49.7789 28.566 50.0489 28.6676 50.4925 29.0178L52.971 25.8782ZM49.8648 24.5602C49.152 24.4954 48.3172 24.5276 47.5141 24.9492C46.7055 25.3737 46.2184 26.041 45.8874 26.6367L49.3841 28.5793C49.4193 28.5159 49.4471 28.4717 49.4675 28.442C49.4877 28.4126 49.4981 28.401 49.4978 28.4013C49.4971 28.4021 49.4856 28.4147 49.4627 28.433C49.4391 28.4518 49.4089 28.4722 49.3734 28.4908C49.338 28.5094 49.3057 28.5218 49.2803 28.5296C49.2556 28.5371 49.2433 28.5383 49.2482 28.5377C49.2537 28.537 49.2757 28.5345 49.3187 28.5344C49.3619 28.5342 49.422 28.5365 49.5027 28.5438L49.8648 24.5602ZM45.9062 26.6037C45.1002 27.9917 44.9135 29.4512 44.8137 30.449L48.7938 30.847C48.886 29.9248 49.0193 29.2083 49.3653 28.6123L45.9062 26.6037ZM44.8051 30.574C44.761 31.765 44.9892 32.771 45.4629 33.7184L49.0406 31.9296C48.8743 31.597 48.7825 31.259 48.8024 30.722L44.8051 30.574ZM45.4211 33.6295C46.1751 35.3432 47.8384 35.976 49.1398 35.976V31.976C49.1135 31.976 49.0869 31.9727 49.0639 31.967C49.041 31.9613 49.0296 31.9554 49.0283 31.9546C49.028 31.9544 49.0385 31.9604 49.0529 31.9758C49.0598 31.9833 49.0664 31.9915 49.0719 31.9999C49.0775 32.0084 49.0809 32.0151 49.0824 32.0185L45.4211 33.6295ZM49.1398 35.976C51.8172 35.976 53.6036 33.7287 54.1348 31.8694L50.2887 30.7706C50.1959 31.0955 49.9888 31.4403 49.7254 31.6841C49.4672 31.923 49.2596 31.976 49.1398 31.976V35.976ZM71.746 30.744L73.7389 30.5751L73.7369 30.552L73.7344 30.529L71.746 30.744ZM71.682 36.376L69.6894 36.2042L69.6889 36.2099L71.682 36.376ZM67.458 35.992H65.458V36.046L65.4609 36.1L67.458 35.992ZM67.458 32.792L65.4587 32.846L65.4596 32.8795L65.4617 32.913L67.458 32.792ZM67.17 29.24L69.1584 29.025L69.1522 28.9679L69.1428 28.9112L67.17 29.24ZM66.69 28.088L64.8173 28.7902L64.8542 28.8885L64.9011 28.9824L66.69 28.088ZM66.082 27.768L66.4268 29.7381L66.4715 29.7302L66.5159 29.7204L66.082 27.768ZM62.69 29.464L61.252 28.074L61.1651 28.1639L61.09 28.264L62.69 29.464ZM62.53 29.912H60.53V29.9453L60.5311 29.9786L62.53 29.912ZM62.722 35.672L64.7197 35.5769L64.7188 35.5579L64.7176 35.539L62.722 35.672ZM58.626 36.152L56.6382 36.3729L56.6397 36.3857L58.626 36.152ZM58.338 32.696H56.338V32.7238L56.3388 32.7515L58.338 32.696ZM58.37 24.568L56.3744 24.435L56.37 24.5014V24.568H58.37ZM58.722 23.192L57.0136 22.1521L56.9992 22.1757L56.9855 22.1997L58.722 23.192ZM60.898 22.232L60.4789 24.1876L60.4984 24.1918L60.518 24.1956L60.898 22.232ZM62.562 24.376H60.562V27.0753L63.1443 26.2893L62.562 24.376ZM64.738 23.672L65.1629 25.6264L65.2083 25.6165L65.2533 25.6045L64.738 23.672ZM71.042 27.224L69.1631 27.9095L69.1672 27.9204L71.042 27.224ZM69.7531 30.9129C69.9002 32.6482 69.8437 34.414 69.6894 36.2042L73.6746 36.5478C73.8403 34.626 73.9118 32.6158 73.7389 30.5751L69.7531 30.9129ZM69.6889 36.2099C69.6848 36.2597 69.6735 36.2907 69.6654 36.3078C69.657 36.3253 69.6486 36.3349 69.6432 36.34C69.6377 36.345 69.6319 36.3488 69.6241 36.3519C69.6171 36.3547 69.6005 36.36 69.57 36.36V40.36C71.7613 40.36 73.4953 38.6994 73.6751 36.5421L69.6889 36.2099ZM69.57 36.36C69.5523 36.36 69.5717 36.3583 69.6025 36.374C69.6283 36.3871 69.6269 36.3946 69.6064 36.3689C69.5839 36.3409 69.5478 36.2841 69.5153 36.1925C69.483 36.1014 69.4611 35.9948 69.4551 35.884L65.4609 36.1C65.5117 37.0401 65.828 38.0509 66.4856 38.8711C67.1772 39.7336 68.2402 40.36 69.57 40.36V36.36ZM69.458 35.992C69.458 35.1061 69.5226 33.7978 69.4543 32.671L65.4617 32.913C65.5214 33.8982 65.458 34.7659 65.458 35.992H69.458ZM69.4573 32.738C69.4227 31.4597 69.2849 30.1953 69.1584 29.025L65.1816 29.455C65.3111 30.6527 65.4293 31.7563 65.4587 32.846L69.4573 32.738ZM69.1428 28.9112C69.0146 28.1419 68.5679 27.3716 68.4789 27.1936L64.9011 28.9824C64.9535 29.0871 65.0173 29.2101 65.0556 29.2852C65.101 29.3741 65.1337 29.4402 65.1599 29.4973C65.2167 29.6214 65.2073 29.629 65.1972 29.5688L69.1428 28.9112ZM68.5627 27.3858C68.3708 26.874 67.9973 26.3653 67.4062 26.0471C66.8143 25.7283 66.1832 25.6967 65.6481 25.8156L66.5159 29.7204C66.2688 29.7753 65.8937 29.7757 65.5098 29.5689C65.1267 29.3627 64.9132 29.046 64.8173 28.7902L68.5627 27.3858ZM65.7372 25.7979C64.1525 26.0753 62.5441 26.7374 61.252 28.074L64.128 30.854C64.6919 30.2706 65.4515 29.9087 66.4268 29.7381L65.7372 25.7979ZM61.09 28.264C60.7895 28.6647 60.53 29.2356 60.53 29.912H64.53C64.53 30.2684 64.3985 30.5193 64.29 30.664L61.09 28.264ZM60.5311 29.9786C60.592 31.8044 60.5959 33.8464 60.7264 35.805L64.7176 35.539C64.5921 33.6576 64.596 31.8596 64.5289 29.8454L60.5311 29.9786ZM60.7243 35.7671C60.7321 35.9312 60.6786 36.0094 60.6576 36.033C60.6346 36.059 60.6389 36.04 60.674 36.04V40.04C63.1051 40.04 64.8313 37.9196 64.7197 35.5769L60.7243 35.7671ZM60.674 36.04C60.6346 36.04 60.6232 36.0335 60.6299 36.0362C60.6364 36.0387 60.6449 36.044 60.6508 36.0495C60.6654 36.0633 60.6263 36.0374 60.6123 35.9183L56.6397 36.3857C56.8736 38.3741 58.4358 40.04 60.674 40.04V36.04ZM60.6138 35.9311C60.4842 34.765 60.3665 33.6956 60.3372 32.6405L56.3388 32.7515C56.3735 34.0004 56.5118 35.235 56.6382 36.3729L60.6138 35.9311ZM60.338 32.696C60.338 31.3429 60.346 29.9968 60.354 28.6438C60.362 27.2928 60.37 25.9349 60.37 24.568H56.37C56.37 25.9211 56.362 27.2672 56.354 28.6202C56.346 29.9712 56.338 31.3291 56.338 32.696H60.338ZM60.3656 24.701C60.3918 24.3083 60.432 24.2306 60.4585 24.1843L56.9855 22.1997C56.5 23.0494 56.4122 23.8677 56.3744 24.435L60.3656 24.701ZM60.4304 24.2319C60.4559 24.1901 60.4772 24.1813 60.474 24.1827C60.4724 24.1835 60.4686 24.1847 60.4644 24.1852C60.4596 24.1857 60.4634 24.1843 60.4789 24.1876L61.3171 20.2764C59.5183 19.8909 57.8649 20.7536 57.0136 22.1521L60.4304 24.2319ZM60.518 24.1956C60.499 24.1919 60.4856 24.1848 60.4814 24.1821C60.479 24.1805 60.4887 24.1864 60.504 24.2066C60.5194 24.2271 60.5352 24.2556 60.5466 24.2893C60.5579 24.3228 60.562 24.3529 60.562 24.376H64.562C64.562 22.5845 63.358 20.671 61.278 20.2684L60.518 24.1956ZM63.1443 26.2893C63.5711 26.1595 64.0094 25.9949 64.32 25.8844C64.6655 25.7616 64.9259 25.6779 65.1629 25.6264L64.3131 21.7176C63.8141 21.8261 63.3545 21.9824 62.98 22.1156C62.5706 22.2611 62.2889 22.3685 61.9797 22.4627L63.1443 26.2893ZM65.2533 25.6045C65.4983 25.5391 65.7855 25.512 66.146 25.512V21.512C65.6105 21.512 64.9377 21.5489 64.2227 21.7395L65.2533 25.6045ZM66.146 25.512C67.429 25.512 68.545 26.2152 69.1632 27.9095L72.9208 26.5385C71.811 23.4968 69.343 21.512 66.146 21.512V25.512ZM69.1672 27.9204C69.4875 28.7828 69.6296 29.7746 69.7576 30.959L73.7344 30.529C73.6065 29.3454 73.4285 27.9052 72.9169 26.5276L69.1672 27.9204ZM86.2883 17.464L87.3748 15.7849L87.3463 15.7664L87.3172 15.749L86.2883 17.464ZM87.0243 20.44L88.6582 21.5934L88.6822 21.5593L88.7048 21.5243L87.0243 20.44ZM84.5283 21.176L85.2305 19.3033L85.1958 19.2903L85.1607 19.2786L84.5283 21.176ZM83.3443 21.016V23.016H83.4274L83.5103 23.0091L83.3443 21.016ZM81.9363 21.944L83.7061 22.8755L83.7257 22.8382L83.7437 22.8002L81.9363 21.944ZM80.6883 25.848L78.7236 25.4738L78.2713 27.848H80.6883V25.848ZM83.6963 25.848L83.872 23.8557L83.8554 23.8543L83.8387 23.8531L83.6963 25.848ZM85.5843 27.864L87.5833 27.9246L87.5843 27.8943V27.864H85.5843ZM83.6963 29.88L83.872 31.8723L83.8977 31.87L83.9233 31.8671L83.6963 29.88ZM80.4003 30.008V28.008H78.4003V30.008H80.4003ZM80.4003 30.84L78.4157 31.0881L78.4165 31.0943L80.4003 30.84ZM80.9123 34.616L78.9285 34.8703L78.9312 34.8915L78.9344 34.9127L80.9123 34.616ZM81.1683 36.536L83.1628 36.3883L83.1609 36.3626L83.1583 36.337L81.1683 36.536ZM79.8563 38.584L79.202 36.694L79.1779 36.7024L79.154 36.7113L79.8563 38.584ZM77.4563 37.912L79.045 36.6971L79.0195 36.6638L78.9927 36.6316L77.4563 37.912ZM76.0163 30.584H74.0163V30.6067L74.0168 30.6294L76.0163 30.584ZM75.9843 30.424H77.9843V28.0631L75.6555 28.4512L75.9843 30.424ZM75.4083 30.488L75.5134 32.4852L75.6259 32.4793L75.7371 32.4608L75.4083 30.488ZM73.7122 30.136L74.8453 28.4879L74.8252 28.4741L74.8048 28.4608L73.7122 30.136ZM74.6723 26.424L74.5189 24.4299L74.4587 24.4345L74.399 24.4428L74.6723 26.424ZM75.9523 26.296V24.296H75.8754L75.7989 24.3019L75.9523 26.296ZM76.2403 26.008L78.2131 26.3368L78.2147 26.3265L76.2403 26.008ZM77.9363 20.312L76.1173 19.4805L76.1166 19.482L77.9363 20.312ZM83.1523 16.696L83.3097 18.6898L83.3231 18.6887L83.1523 16.696ZM85.2017 19.1431C85.2744 19.1902 85.3133 19.2332 85.333 19.2604C85.3529 19.2878 85.3583 19.3059 85.3597 19.3119C85.3612 19.3177 85.3607 19.3195 85.3606 19.3202C85.3604 19.3211 85.3598 19.324 85.3579 19.329C85.3559 19.334 85.3518 19.343 85.3437 19.3557L88.7048 21.5243C89.9922 19.5288 89.3113 17.0379 87.3748 15.7849L85.2017 19.1431ZM85.3903 19.2866C85.3943 19.281 85.3934 19.2853 85.3801 19.2921C85.3662 19.2991 85.3477 19.304 85.3283 19.304V23.304C86.623 23.304 87.8841 22.6901 88.6582 21.5934L85.3903 19.2866ZM85.3283 19.304C85.2811 19.304 85.2438 19.3009 85.2192 19.2973C85.2078 19.2956 85.2027 19.2943 85.2035 19.2945C85.2042 19.2947 85.2137 19.2971 85.2305 19.3033L83.826 23.0487C84.3834 23.2577 84.9312 23.304 85.3283 23.304V19.304ZM85.1607 19.2786C84.5733 19.0828 83.8832 18.9642 83.1782 19.0229L83.5103 23.0091C83.5733 23.0038 83.7152 23.0132 83.8958 23.0734L85.1607 19.2786ZM83.3443 19.016C82.6781 19.016 82.005 19.1872 81.4054 19.5836C80.8125 19.9755 80.3999 20.5155 80.1288 21.0878L83.7437 22.8002C83.7606 22.7645 83.732 22.8405 83.6111 22.9204C83.5541 22.9581 83.4943 22.9844 83.4396 22.9998C83.3863 23.0149 83.3516 23.016 83.3443 23.016V19.016ZM80.1664 21.0125C79.3904 22.487 78.9934 24.0569 78.7236 25.4738L82.6529 26.2222C82.8951 24.9511 83.2021 23.833 83.7061 22.8755L80.1664 21.0125ZM80.6883 27.848C80.6885 27.848 80.6888 27.848 80.689 27.848C80.6892 27.848 80.6895 27.848 80.6897 27.848C80.69 27.848 80.6902 27.848 80.6905 27.848C80.6907 27.848 80.691 27.848 80.6912 27.848C80.6915 27.848 80.6917 27.848 80.692 27.848C80.6922 27.848 80.6925 27.848 80.6927 27.848C80.693 27.848 80.6932 27.848 80.6935 27.848C80.6937 27.848 80.694 27.848 80.6942 27.848C80.6945 27.848 80.6947 27.848 80.695 27.848C80.6952 27.848 80.6955 27.848 80.6957 27.848C80.696 27.848 80.6962 27.848 80.6965 27.848C80.6967 27.848 80.697 27.848 80.6972 27.848C80.6974 27.848 80.6977 27.848 80.6979 27.848C80.6982 27.848 80.6984 27.848 80.6987 27.848C80.6989 27.848 80.6992 27.848 80.6994 27.848C80.6997 27.848 80.6999 27.848 80.7002 27.848C80.7004 27.848 80.7006 27.848 80.7009 27.848C80.7011 27.848 80.7014 27.848 80.7016 27.848C80.7019 27.848 80.7021 27.848 80.7024 27.848C80.7026 27.848 80.7029 27.848 80.7031 27.848C80.7034 27.848 80.7036 27.848 80.7038 27.848C80.7041 27.848 80.7043 27.848 80.7046 27.848C80.7048 27.848 80.7051 27.848 80.7053 27.848C80.7056 27.848 80.7058 27.848 80.706 27.848C80.7063 27.848 80.7065 27.848 80.7068 27.848C80.707 27.848 80.7073 27.848 80.7075 27.848C80.7078 27.848 80.708 27.848 80.7082 27.848C80.7085 27.848 80.7087 27.848 80.709 27.848C80.7092 27.848 80.7095 27.848 80.7097 27.848C80.7099 27.848 80.7102 27.848 80.7104 27.848C80.7107 27.848 80.7109 27.848 80.7112 27.848C80.7114 27.848 80.7116 27.848 80.7119 27.848C80.7121 27.848 80.7124 27.848 80.7126 27.848C80.7129 27.848 80.7131 27.848 80.7133 27.848C80.7136 27.848 80.7138 27.848 80.7141 27.848C80.7143 27.848 80.7145 27.848 80.7148 27.848C80.715 27.848 80.7153 27.848 80.7155 27.848C80.7158 27.848 80.716 27.848 80.7162 27.848C80.7165 27.848 80.7167 27.848 80.717 27.848C80.7172 27.848 80.7174 27.848 80.7177 27.848C80.7179 27.848 80.7182 27.848 80.7184 27.848C80.7186 27.848 80.7189 27.848 80.7191 27.848C80.7194 27.848 80.7196 27.848 80.7198 27.848C80.7201 27.848 80.7203 27.848 80.7206 27.848C80.7208 27.848 80.721 27.848 80.7213 27.848C80.7215 27.848 80.7218 27.848 80.722 27.848C80.7222 27.848 80.7225 27.848 80.7227 27.848C80.723 27.848 80.7232 27.848 80.7234 27.848C80.7237 27.848 80.7239 27.848 80.7241 27.848C80.7244 27.848 80.7246 27.848 80.7249 27.848C80.7251 27.848 80.7253 27.848 80.7256 27.848C80.7258 27.848 80.7261 27.848 80.7263 27.848C80.7265 27.848 80.7268 27.848 80.727 27.848C80.7272 27.848 80.7275 27.848 80.7277 27.848C80.728 27.848 80.7282 27.848 80.7284 27.848C80.7287 27.848 80.7289 27.848 80.7291 27.848C80.7294 27.848 80.7296 27.848 80.7299 27.848C80.7301 27.848 80.7303 27.848 80.7306 27.848C80.7308 27.848 80.731 27.848 80.7313 27.848C80.7315 27.848 80.7317 27.848 80.732 27.848C80.7322 27.848 80.7325 27.848 80.7327 27.848C80.7329 27.848 80.7332 27.848 80.7334 27.848C80.7336 27.848 80.7339 27.848 80.7341 27.848C80.7343 27.848 80.7346 27.848 80.7348 27.848C80.735 27.848 80.7353 27.848 80.7355 27.848C80.7358 27.848 80.736 27.848 80.7362 27.848C80.7365 27.848 80.7367 27.848 80.7369 27.848C80.7372 27.848 80.7374 27.848 80.7376 27.848C80.7379 27.848 80.7381 27.848 80.7383 27.848C80.7386 27.848 80.7388 27.848 80.739 27.848C80.7393 27.848 80.7395 27.848 80.7397 27.848C80.74 27.848 80.7402 27.848 80.7404 27.848C80.7407 27.848 80.7409 27.848 80.7411 27.848C80.7414 27.848 80.7416 27.848 80.7418 27.848C80.7421 27.848 80.7423 27.848 80.7425 27.848C80.7428 27.848 80.743 27.848 80.7432 27.848C80.7435 27.848 80.7437 27.848 80.7439 27.848C80.7442 27.848 80.7444 27.848 80.7446 27.848C80.7449 27.848 80.7451 27.848 80.7453 27.848C80.7456 27.848 80.7458 27.848 80.746 27.848C80.7463 27.848 80.7465 27.848 80.7467 27.848C80.747 27.848 80.7472 27.848 80.7474 27.848C80.7477 27.848 80.7479 27.848 80.7481 27.848C80.7483 27.848 80.7486 27.848 80.7488 27.848C80.749 27.848 80.7493 27.848 80.7495 27.848C80.7497 27.848 80.75 27.848 80.7502 27.848C80.7504 27.848 80.7507 27.848 80.7509 27.848C80.7511 27.848 80.7513 27.848 80.7516 27.848C80.7518 27.848 80.752 27.848 80.7523 27.848C80.7525 27.848 80.7527 27.848 80.753 27.848C80.7532 27.848 80.7534 27.848 80.7536 27.848C80.7539 27.848 80.7541 27.848 80.7543 27.848C80.7546 27.848 80.7548 27.848 80.755 27.848C80.7553 27.848 80.7555 27.848 80.7557 27.848C80.7559 27.848 80.7562 27.848 80.7564 27.848C80.7566 27.848 80.7569 27.848 80.7571 27.848C80.7573 27.848 80.7575 27.848 80.7578 27.848C80.758 27.848 80.7582 27.848 80.7585 27.848C80.7587 27.848 80.7589 27.848 80.7591 27.848C80.7594 27.848 80.7596 27.848 80.7598 27.848C80.7601 27.848 80.7603 27.848 80.7605 27.848C80.7607 27.848 80.761 27.848 80.7612 27.848C80.7614 27.848 80.7616 27.848 80.7619 27.848C80.7621 27.848 80.7623 27.848 80.7626 27.848C80.7628 27.848 80.763 27.848 80.7632 27.848C80.7635 27.848 80.7637 27.848 80.7639 27.848C80.7641 27.848 80.7644 27.848 80.7646 27.848C80.7648 27.848 80.7651 27.848 80.7653 27.848C80.7655 27.848 80.7657 27.848 80.766 27.848C80.7662 27.848 80.7664 27.848 80.7666 27.848C80.7669 27.848 80.7671 27.848 80.7673 27.848C80.7675 27.848 80.7678 27.848 80.768 27.848C80.7682 27.848 80.7684 27.848 80.7687 27.848C80.7689 27.848 80.7691 27.848 80.7693 27.848C80.7696 27.848 80.7698 27.848 80.77 27.848C80.7702 27.848 80.7705 27.848 80.7707 27.848C80.7709 27.848 80.7711 27.848 80.7714 27.848C80.7716 27.848 80.7718 27.848 80.772 27.848C80.7723 27.848 80.7725 27.848 80.7727 27.848C80.7729 27.848 80.7732 27.848 80.7734 27.848C80.7736 27.848 80.7738 27.848 80.7741 27.848C80.7743 27.848 80.7745 27.848 80.7747 27.848C80.775 27.848 80.7752 27.848 80.7754 27.848C80.7756 27.848 80.7759 27.848 80.7761 27.848C80.7763 27.848 80.7765 27.848 80.7767 27.848C80.777 27.848 80.7772 27.848 80.7774 27.848C80.7776 27.848 80.7779 27.848 80.7781 27.848C80.7783 27.848 80.7785 27.848 80.7788 27.848C80.779 27.848 80.7792 27.848 80.7794 27.848C80.7796 27.848 80.7799 27.848 80.7801 27.848C80.7803 27.848 80.7805 27.848 80.7808 27.848C80.781 27.848 80.7812 27.848 80.7814 27.848C80.7816 27.848 80.7819 27.848 80.7821 27.848C80.7823 27.848 80.7825 27.848 80.7827 27.848C80.783 27.848 80.7832 27.848 80.7834 27.848C80.7836 27.848 80.7839 27.848 80.7841 27.848C80.7843 27.848 80.7845 27.848 80.7847 27.848C80.785 27.848 80.7852 27.848 80.7854 27.848C80.7856 27.848 80.7858 27.848 80.7861 27.848C80.7863 27.848 80.7865 27.848 80.7867 27.848C80.7869 27.848 80.7872 27.848 80.7874 27.848C80.7876 27.848 80.7878 27.848 80.788 27.848C80.7883 27.848 80.7885 27.848 80.7887 27.848C80.7889 27.848 80.7891 27.848 80.7894 27.848C80.7896 27.848 80.7898 27.848 80.79 27.848C80.7902 27.848 80.7905 27.848 80.7907 27.848C80.7909 27.848 80.7911 27.848 80.7913 27.848C80.7916 27.848 80.7918 27.848 80.792 27.848C80.7922 27.848 80.7924 27.848 80.7927 27.848C80.7929 27.848 80.7931 27.848 80.7933 27.848C80.7935 27.848 80.7938 27.848 80.794 27.848C80.7942 27.848 80.7944 27.848 80.7946 27.848C80.7948 27.848 80.7951 27.848 80.7953 27.848C80.7955 27.848 80.7957 27.848 80.7959 27.848C80.7962 27.848 80.7964 27.848 80.7966 27.848C80.7968 27.848 80.797 27.848 80.7972 27.848C80.7975 27.848 80.7977 27.848 80.7979 27.848C80.7981 27.848 80.7983 27.848 80.7985 27.848C80.7988 27.848 80.799 27.848 80.7992 27.848C80.7994 27.848 80.7996 27.848 80.7999 27.848C80.8001 27.848 80.8003 27.848 80.8005 27.848C80.8007 27.848 80.8009 27.848 80.8012 27.848C80.8014 27.848 80.8016 27.848 80.8018 27.848C80.802 27.848 80.8022 27.848 80.8025 27.848C80.8027 27.848 80.8029 27.848 80.8031 27.848C80.8033 27.848 80.8035 27.848 80.8037 27.848C80.804 27.848 80.8042 27.848 80.8044 27.848C80.8046 27.848 80.8048 27.848 80.805 27.848C80.8053 27.848 80.8055 27.848 80.8057 27.848C80.8059 27.848 80.8061 27.848 80.8063 27.848C80.8066 27.848 80.8068 27.848 80.807 27.848C80.8072 27.848 80.8074 27.848 80.8076 27.848C80.8078 27.848 80.8081 27.848 80.8083 27.848C80.8085 27.848 80.8087 27.848 80.8089 27.848C80.8091 27.848 80.8093 27.848 80.8096 27.848C80.8098 27.848 80.81 27.848 80.8102 27.848C80.8104 27.848 80.8106 27.848 80.8108 27.848C80.8111 27.848 80.8113 27.848 80.8115 27.848C80.8117 27.848 80.8119 27.848 80.8121 27.848C80.8123 27.848 80.8126 27.848 80.8128 27.848C80.813 27.848 80.8132 27.848 80.8134 27.848C80.8136 27.848 80.8138 27.848 80.8141 27.848C80.8143 27.848 80.8145 27.848 80.8147 27.848C80.8149 27.848 80.8151 27.848 80.8153 27.848C80.8156 27.848 80.8158 27.848 80.816 27.848C80.8162 27.848 80.8164 27.848 80.8166 27.848C80.8168 27.848 80.817 27.848 80.8173 27.848C80.8175 27.848 80.8177 27.848 80.8179 27.848C80.8181 27.848 80.8183 27.848 80.8185 27.848C80.8187 27.848 80.819 27.848 80.8192 27.848C80.8194 27.848 80.8196 27.848 80.8198 27.848C80.82 27.848 80.8202 27.848 80.8204 27.848C80.8207 27.848 80.8209 27.848 80.8211 27.848C80.8213 27.848 80.8215 27.848 80.8217 27.848C80.8219 27.848 80.8221 27.848 80.8223 27.848C80.8226 27.848 80.8228 27.848 80.823 27.848C80.8232 27.848 80.8234 27.848 80.8236 27.848C80.8238 27.848 80.824 27.848 80.8242 27.848C80.8245 27.848 80.8247 27.848 80.8249 27.848C80.8251 27.848 80.8253 27.848 80.8255 27.848C80.8257 27.848 80.8259 27.848 80.8261 27.848C80.8264 27.848 80.8266 27.848 80.8268 27.848C80.827 27.848 80.8272 27.848 80.8274 27.848C80.8276 27.848 80.8278 27.848 80.828 27.848C80.8282 27.848 80.8285 27.848 80.8287 27.848C80.8289 27.848 80.8291 27.848 80.8293 27.848C80.8295 27.848 80.8297 27.848 80.8299 27.848C80.8301 27.848 80.8303 27.848 80.8306 27.848C80.8308 27.848 80.831 27.848 80.8312 27.848C80.8314 27.848 80.8316 27.848 80.8318 27.848C80.832 27.848 80.8322 27.848 80.8324 27.848C80.8326 27.848 80.8329 27.848 80.8331 27.848C80.8333 27.848 80.8335 27.848 80.8337 27.848C80.8339 27.848 80.8341 27.848 80.8343 27.848C80.8345 27.848 80.8347 27.848 80.8349 27.848C80.8352 27.848 80.8354 27.848 80.8356 27.848C80.8358 27.848 80.836 27.848 80.8362 27.848C80.8364 27.848 80.8366 27.848 80.8368 27.848C80.837 27.848 80.8372 27.848 80.8374 27.848C80.8376 27.848 80.8379 27.848 80.8381 27.848C80.8383 27.848 80.8385 27.848 80.8387 27.848C80.8389 27.848 80.8391 27.848 80.8393 27.848C80.8395 27.848 80.8397 27.848 80.8399 27.848C80.8401 27.848 80.8403 27.848 80.8406 27.848C80.8408 27.848 80.841 27.848 80.8412 27.848C80.8414 27.848 80.8416 27.848 80.8418 27.848C80.842 27.848 80.8422 27.848 80.8424 27.848C80.8426 27.848 80.8428 27.848 80.843 27.848C80.8432 27.848 80.8435 27.848 80.8437 27.848C80.8439 27.848 80.8441 27.848 80.8443 27.848C80.8445 27.848 80.8447 27.848 80.8449 27.848C80.8451 27.848 80.8453 27.848 80.8455 27.848C80.8457 27.848 80.8459 27.848 80.8461 27.848C80.8463 27.848 80.8465 27.848 80.8468 27.848C80.847 27.848 80.8472 27.848 80.8474 27.848C80.8476 27.848 80.8478 27.848 80.848 27.848C80.8482 27.848 80.8484 27.848 80.8486 27.848C80.8488 27.848 80.849 27.848 80.8492 27.848C80.8494 27.848 80.8496 27.848 80.8498 27.848C80.85 27.848 80.8502 27.848 80.8505 27.848C80.8507 27.848 80.8509 27.848 80.8511 27.848C80.8513 27.848 80.8515 27.848 80.8517 27.848C80.8519 27.848 80.8521 27.848 80.8523 27.848C80.8525 27.848 80.8527 27.848 80.8529 27.848C80.8531 27.848 80.8533 27.848 80.8535 27.848C80.8537 27.848 80.8539 27.848 80.8541 27.848C80.8543 27.848 80.8545 27.848 80.8548 27.848C80.855 27.848 80.8552 27.848 80.8554 27.848C80.8556 27.848 80.8558 27.848 80.856 27.848C80.8562 27.848 80.8564 27.848 80.8566 27.848C80.8568 27.848 80.857 27.848 80.8572 27.848C80.8574 27.848 80.8576 27.848 80.8578 27.848C80.858 27.848 80.8582 27.848 80.8584 27.848C80.8586 27.848 80.8588 27.848 80.859 27.848C80.8592 27.848 80.8594 27.848 80.8596 27.848C80.8598 27.848 80.86 27.848 80.8603 27.848C80.8605 27.848 80.8607 27.848 80.8609 27.848C80.8611 27.848 80.8613 27.848 80.8615 27.848C80.8617 27.848 80.8619 27.848 80.8621 27.848C80.8623 27.848 80.8625 27.848 80.8627 27.848C80.8629 27.848 80.8631 27.848 80.8633 27.848C80.8635 27.848 80.8637 27.848 80.8639 27.848C80.8641 27.848 80.8643 27.848 80.8645 27.848C80.8647 27.848 80.8649 27.848 80.8651 27.848C80.8653 27.848 80.8655 27.848 80.8657 27.848C80.8659 27.848 80.8661 27.848 80.8663 27.848C80.8665 27.848 80.8667 27.848 80.8669 27.848C80.8671 27.848 80.8673 27.848 80.8675 27.848C80.8677 27.848 80.8679 27.848 80.8681 27.848C80.8683 27.848 80.8685 27.848 80.8687 27.848C80.8689 27.848 80.8691 27.848 80.8694 27.848C80.8696 27.848 80.8698 27.848 80.87 27.848C80.8702 27.848 80.8704 27.848 80.8706 27.848C80.8708 27.848 80.871 27.848 80.8712 27.848C80.8714 27.848 80.8716 27.848 80.8718 27.848C80.872 27.848 80.8722 27.848 80.8724 27.848C80.8726 27.848 80.8728 27.848 80.873 27.848C80.8732 27.848 80.8734 27.848 80.8736 27.848C80.8738 27.848 80.874 27.848 80.8742 27.848C80.8744 27.848 80.8746 27.848 80.8748 27.848C80.875 27.848 80.8752 27.848 80.8754 27.848C80.8756 27.848 80.8758 27.848 80.876 27.848C80.8762 27.848 80.8764 27.848 80.8766 27.848C80.8768 27.848 80.877 27.848 80.8772 27.848C80.8774 27.848 80.8776 27.848 80.8778 27.848C80.878 27.848 80.8782 27.848 80.8784 27.848C80.8786 27.848 80.8788 27.848 80.879 27.848C80.8792 27.848 80.8794 27.848 80.8796 27.848C80.8798 27.848 80.88 27.848 80.8802 27.848C80.8804 27.848 80.8806 27.848 80.8808 27.848C80.881 27.848 80.8812 27.848 80.8814 27.848C80.8816 27.848 80.8818 27.848 80.882 27.848C80.8822 27.848 80.8824 27.848 80.8826 27.848C80.8828 27.848 80.883 27.848 80.8832 27.848C80.8834 27.848 80.8836 27.848 80.8838 27.848C80.884 27.848 80.8841 27.848 80.8843 27.848C80.8845 27.848 80.8847 27.848 80.8849 27.848C80.8851 27.848 80.8853 27.848 80.8855 27.848C80.8857 27.848 80.8859 27.848 80.8861 27.848C80.8863 27.848 80.8865 27.848 80.8867 27.848C80.8869 27.848 80.8871 27.848 80.8873 27.848C80.8875 27.848 80.8877 27.848 80.8879 27.848C80.8881 27.848 80.8883 27.848 80.8885 27.848C80.8887 27.848 80.8889 27.848 80.8891 27.848C80.8893 27.848 80.8895 27.848 80.8897 27.848C80.8899 27.848 80.8901 27.848 80.8903 27.848C80.8905 27.848 80.8907 27.848 80.8909 27.848C80.8911 27.848 80.8913 27.848 80.8915 27.848C80.8917 27.848 80.8919 27.848 80.8921 27.848C80.8923 27.848 80.8925 27.848 80.8927 27.848C80.8929 27.848 80.8931 27.848 80.8933 27.848C80.8934 27.848 80.8936 27.848 80.8938 27.848C80.894 27.848 80.8942 27.848 80.8944 27.848C80.8946 27.848 80.8948 27.848 80.895 27.848C80.8952 27.848 80.8954 27.848 80.8956 27.848C80.8958 27.848 80.896 27.848 80.8962 27.848C80.8964 27.848 80.8966 27.848 80.8968 27.848C80.897 27.848 80.8972 27.848 80.8974 27.848C80.8976 27.848 80.8978 27.848 80.898 27.848C80.8982 27.848 80.8984 27.848 80.8986 27.848C80.8988 27.848 80.899 27.848 80.8992 27.848C80.8993 27.848 80.8995 27.848 80.8997 27.848C80.8999 27.848 80.9001 27.848 80.9003 27.848C80.9005 27.848 80.9007 27.848 80.9009 27.848C80.9011 27.848 80.9013 27.848 80.9015 27.848C80.9017 27.848 80.9019 27.848 80.9021 27.848C80.9023 27.848 80.9025 27.848 80.9027 27.848C80.9029 27.848 80.9031 27.848 80.9033 27.848C80.9035 27.848 80.9037 27.848 80.9039 27.848C80.904 27.848 80.9042 27.848 80.9044 27.848C80.9046 27.848 80.9048 27.848 80.905 27.848C80.9052 27.848 80.9054 27.848 80.9056 27.848C80.9058 27.848 80.906 27.848 80.9062 27.848C80.9064 27.848 80.9066 27.848 80.9068 27.848C80.907 27.848 80.9072 27.848 80.9074 27.848C80.9076 27.848 80.9078 27.848 80.908 27.848C80.9081 27.848 80.9083 27.848 80.9085 27.848C80.9087 27.848 80.9089 27.848 80.9091 27.848C80.9093 27.848 80.9095 27.848 80.9097 27.848C80.9099 27.848 80.9101 27.848 80.9103 27.848C80.9105 27.848 80.9107 27.848 80.9109 27.848C80.9111 27.848 80.9113 27.848 80.9115 27.848C80.9116 27.848 80.9118 27.848 80.912 27.848C80.9122 27.848 80.9124 27.848 80.9126 27.848C80.9128 27.848 80.913 27.848 80.9132 27.848C80.9134 27.848 80.9136 27.848 80.9138 27.848C80.914 27.848 80.9142 27.848 80.9144 27.848C80.9146 27.848 80.9148 27.848 80.9149 27.848C80.9151 27.848 80.9153 27.848 80.9155 27.848C80.9157 27.848 80.9159 27.848 80.9161 27.848C80.9163 27.848 80.9165 27.848 80.9167 27.848C80.9169 27.848 80.9171 27.848 80.9173 27.848C80.9175 27.848 80.9177 27.848 80.9179 27.848C80.918 27.848 80.9182 27.848 80.9184 27.848C80.9186 27.848 80.9188 27.848 80.919 27.848C80.9192 27.848 80.9194 27.848 80.9196 27.848C80.9198 27.848 80.92 27.848 80.9202 27.848C80.9204 27.848 80.9206 27.848 80.9208 27.848C80.9209 27.848 80.9211 27.848 80.9213 27.848C80.9215 27.848 80.9217 27.848 80.9219 27.848C80.9221 27.848 80.9223 27.848 80.9225 27.848C80.9227 27.848 80.9229 27.848 80.9231 27.848C80.9233 27.848 80.9235 27.848 80.9236 27.848C80.9238 27.848 80.924 27.848 80.9242 27.848C80.9244 27.848 80.9246 27.848 80.9248 27.848C80.925 27.848 80.9252 27.848 80.9254 27.848C80.9256 27.848 80.9258 27.848 80.926 27.848C80.9262 27.848 80.9263 27.848 80.9265 27.848C80.9267 27.848 80.9269 27.848 80.9271 27.848C80.9273 27.848 80.9275 27.848 80.9277 27.848C80.9279 27.848 80.9281 27.848 80.9283 27.848C80.9285 27.848 80.9287 27.848 80.9288 27.848C80.929 27.848 80.9292 27.848 80.9294 27.848C80.9296 27.848 80.9298 27.848 80.93 27.848C80.9302 27.848 80.9304 27.848 80.9306 27.848C80.9308 27.848 80.931 27.848 80.9312 27.848C80.9313 27.848 80.9315 27.848 80.9317 27.848C80.9319 27.848 80.9321 27.848 80.9323 27.848C80.9325 27.848 80.9327 27.848 80.9329 27.848C80.9331 27.848 80.9333 27.848 80.9335 27.848C80.9336 27.848 80.9338 27.848 80.934 27.848C80.9342 27.848 80.9344 27.848 80.9346 27.848C80.9348 27.848 80.935 27.848 80.9352 27.848C80.9354 27.848 80.9356 27.848 80.9358 27.848C80.9359 27.848 80.9361 27.848 80.9363 27.848C80.9365 27.848 80.9367 27.848 80.9369 27.848C80.9371 27.848 80.9373 27.848 80.9375 27.848C80.9377 27.848 80.9379 27.848 80.938 27.848C80.9382 27.848 80.9384 27.848 80.9386 27.848C80.9388 27.848 80.939 27.848 80.9392 27.848C80.9394 27.848 80.9396 27.848 80.9398 27.848C80.94 27.848 80.9401 27.848 80.9403 27.848C80.9405 27.848 80.9407 27.848 80.9409 27.848C80.9411 27.848 80.9413 27.848 80.9415 27.848C80.9417 27.848 80.9419 27.848 80.9421 27.848C80.9422 27.848 80.9424 27.848 80.9426 27.848C80.9428 27.848 80.943 27.848 80.9432 27.848C80.9434 27.848 80.9436 27.848 80.9438 27.848C80.944 27.848 80.9442 27.848 80.9443 27.848C80.9445 27.848 80.9447 27.848 80.9449 27.848C80.9451 27.848 80.9453 27.848 80.9455 27.848C80.9457 27.848 80.9459 27.848 80.9461 27.848C80.9462 27.848 80.9464 27.848 80.9466 27.848C80.9468 27.848 80.947 27.848 80.9472 27.848C80.9474 27.848 80.9476 27.848 80.9478 27.848C80.948 27.848 80.9482 27.848 80.9483 27.848C80.9485 27.848 80.9487 27.848 80.9489 27.848C80.9491 27.848 80.9493 27.848 80.9495 27.848C80.9497 27.848 80.9499 27.848 80.9501 27.848C80.9502 27.848 80.9504 27.848 80.9506 27.848C80.9508 27.848 80.951 27.848 80.9512 27.848C80.9514 27.848 80.9516 27.848 80.9518 27.848C80.952 27.848 80.9521 27.848 80.9523 27.848C80.9525 27.848 80.9527 27.848 80.9529 27.848C80.9531 27.848 80.9533 27.848 80.9535 27.848C80.9537 27.848 80.9538 27.848 80.954 27.848C80.9542 27.848 80.9544 27.848 80.9546 27.848C80.9548 27.848 80.955 27.848 80.9552 27.848C80.9554 27.848 80.9556 27.848 80.9557 27.848C80.9559 27.848 80.9561 27.848 80.9563 27.848C80.9565 27.848 80.9567 27.848 80.9569 27.848C80.9571 27.848 80.9573 27.848 80.9575 27.848C80.9576 27.848 80.9578 27.848 80.958 27.848C80.9582 27.848 80.9584 27.848 80.9586 27.848C80.9588 27.848 80.959 27.848 80.9592 27.848C80.9593 27.848 80.9595 27.848 80.9597 27.848C80.9599 27.848 80.9601 27.848 80.9603 27.848C80.9605 27.848 80.9607 27.848 80.9609 27.848C80.961 27.848 80.9612 27.848 80.9614 27.848C80.9616 27.848 80.9618 27.848 80.962 27.848C80.9622 27.848 80.9624 27.848 80.9626 27.848C80.9628 27.848 80.9629 27.848 80.9631 27.848C80.9633 27.848 80.9635 27.848 80.9637 27.848C80.9639 27.848 80.9641 27.848 80.9643 27.848C80.9645 27.848 80.9646 27.848 80.9648 27.848C80.965 27.848 80.9652 27.848 80.9654 27.848C80.9656 27.848 80.9658 27.848 80.966 27.848C80.9662 27.848 80.9663 27.848 80.9665 27.848C80.9667 27.848 80.9669 27.848 80.9671 27.848C80.9673 27.848 80.9675 27.848 80.9677 27.848C80.9679 27.848 80.968 27.848 80.9682 27.848C80.9684 27.848 80.9686 27.848 80.9688 27.848C80.969 27.848 80.9692 27.848 80.9694 27.848C80.9695 27.848 80.9697 27.848 80.9699 27.848C80.9701 27.848 80.9703 27.848 80.9705 27.848C80.9707 27.848 80.9709 27.848 80.9711 27.848C80.9712 27.848 80.9714 27.848 80.9716 27.848C80.9718 27.848 80.972 27.848 80.9722 27.848C80.9724 27.848 80.9726 27.848 80.9728 27.848C80.9729 27.848 80.9731 27.848 80.9733 27.848C80.9735 27.848 80.9737 27.848 80.9739 27.848C80.9741 27.848 80.9743 27.848 80.9744 27.848C80.9746 27.848 80.9748 27.848 80.975 27.848C80.9752 27.848 80.9754 27.848 80.9756 27.848C80.9758 27.848 80.976 27.848 80.9761 27.848C80.9763 27.848 80.9765 27.848 80.9767 27.848C80.9769 27.848 80.9771 27.848 80.9773 27.848C80.9775 27.848 80.9776 27.848 80.9778 27.848C80.978 27.848 80.9782 27.848 80.9784 27.848C80.9786 27.848 80.9788 27.848 80.979 27.848C80.9792 27.848 80.9793 27.848 80.9795 27.848C80.9797 27.848 80.9799 27.848 80.9801 27.848C80.9803 27.848 80.9805 27.848 80.9807 27.848C80.9808 27.848 80.981 27.848 80.9812 27.848C80.9814 27.848 80.9816 27.848 80.9818 27.848C80.982 27.848 80.9822 27.848 80.9824 27.848C80.9825 27.848 80.9827 27.848 80.9829 27.848C80.9831 27.848 80.9833 27.848 80.9835 27.848C80.9837 27.848 80.9839 27.848 80.984 27.848C80.9842 27.848 80.9844 27.848 80.9846 27.848C80.9848 27.848 80.985 27.848 80.9852 27.848C80.9854 27.848 80.9855 27.848 80.9857 27.848C80.9859 27.848 80.9861 27.848 80.9863 27.848C80.9865 27.848 80.9867 27.848 80.9869 27.848C80.9871 27.848 80.9872 27.848 80.9874 27.848C80.9876 27.848 80.9878 27.848 80.988 27.848C80.9882 27.848 80.9884 27.848 80.9886 27.848C80.9887 27.848 80.9889 27.848 80.9891 27.848C80.9893 27.848 80.9895 27.848 80.9897 27.848C80.9899 27.848 80.9901 27.848 80.9902 27.848C80.9904 27.848 80.9906 27.848 80.9908 27.848C80.991 27.848 80.9912 27.848 80.9914 27.848C80.9916 27.848 80.9917 27.848 80.9919 27.848C80.9921 27.848 80.9923 27.848 80.9925 27.848C80.9927 27.848 80.9929 27.848 80.9931 27.848C80.9932 27.848 80.9934 27.848 80.9936 27.848C80.9938 27.848 80.994 27.848 80.9942 27.848C80.9944 27.848 80.9946 27.848 80.9947 27.848C80.9949 27.848 80.9951 27.848 80.9953 27.848C80.9955 27.848 80.9957 27.848 80.9959 27.848C80.9961 27.848 80.9962 27.848 80.9964 27.848C80.9966 27.848 80.9968 27.848 80.997 27.848C80.9972 27.848 80.9974 27.848 80.9976 27.848C80.9977 27.848 80.9979 27.848 80.9981 27.848C80.9983 27.848 80.9985 27.848 80.9987 27.848C80.9989 27.848 80.9991 27.848 80.9992 27.848C80.9994 27.848 80.9996 27.848 80.9998 27.848C81 27.848 81.0002 27.848 81.0004 27.848C81.0006 27.848 81.0007 27.848 81.0009 27.848C81.0011 27.848 81.0013 27.848 81.0015 27.848C81.0017 27.848 81.0019 27.848 81.0021 27.848C81.0022 27.848 81.0024 27.848 81.0026 27.848C81.0028 27.848 81.003 27.848 81.0032 27.848C81.0034 27.848 81.0036 27.848 81.0038 27.848C81.0039 27.848 81.0041 27.848 81.0043 27.848C81.0045 27.848 81.0047 27.848 81.0049 27.848C81.0051 27.848 81.0053 27.848 81.0054 27.848C81.0056 27.848 81.0058 27.848 81.006 27.848C81.0062 27.848 81.0064 27.848 81.0066 27.848C81.0068 27.848 81.0069 27.848 81.0071 27.848C81.0073 27.848 81.0075 27.848 81.0077 27.848C81.0079 27.848 81.0081 27.848 81.0083 27.848V23.848C81.0081 23.848 81.0079 23.848 81.0077 23.848C81.0075 23.848 81.0073 23.848 81.0071 23.848C81.0069 23.848 81.0068 23.848 81.0066 23.848C81.0064 23.848 81.0062 23.848 81.006 23.848C81.0058 23.848 81.0056 23.848 81.0054 23.848C81.0053 23.848 81.0051 23.848 81.0049 23.848C81.0047 23.848 81.0045 23.848 81.0043 23.848C81.0041 23.848 81.0039 23.848 81.0038 23.848C81.0036 23.848 81.0034 23.848 81.0032 23.848C81.003 23.848 81.0028 23.848 81.0026 23.848C81.0024 23.848 81.0022 23.848 81.0021 23.848C81.0019 23.848 81.0017 23.848 81.0015 23.848C81.0013 23.848 81.0011 23.848 81.0009 23.848C81.0007 23.848 81.0006 23.848 81.0004 23.848C81.0002 23.848 81 23.848 80.9998 23.848C80.9996 23.848 80.9994 23.848 80.9992 23.848C80.9991 23.848 80.9989 23.848 80.9987 23.848C80.9985 23.848 80.9983 23.848 80.9981 23.848C80.9979 23.848 80.9977 23.848 80.9976 23.848C80.9974 23.848 80.9972 23.848 80.997 23.848C80.9968 23.848 80.9966 23.848 80.9964 23.848C80.9962 23.848 80.9961 23.848 80.9959 23.848C80.9957 23.848 80.9955 23.848 80.9953 23.848C80.9951 23.848 80.9949 23.848 80.9947 23.848C80.9946 23.848 80.9944 23.848 80.9942 23.848C80.994 23.848 80.9938 23.848 80.9936 23.848C80.9934 23.848 80.9932 23.848 80.9931 23.848C80.9929 23.848 80.9927 23.848 80.9925 23.848C80.9923 23.848 80.9921 23.848 80.9919 23.848C80.9917 23.848 80.9916 23.848 80.9914 23.848C80.9912 23.848 80.991 23.848 80.9908 23.848C80.9906 23.848 80.9904 23.848 80.9902 23.848C80.9901 23.848 80.9899 23.848 80.9897 23.848C80.9895 23.848 80.9893 23.848 80.9891 23.848C80.9889 23.848 80.9887 23.848 80.9886 23.848C80.9884 23.848 80.9882 23.848 80.988 23.848C80.9878 23.848 80.9876 23.848 80.9874 23.848C80.9872 23.848 80.9871 23.848 80.9869 23.848C80.9867 23.848 80.9865 23.848 80.9863 23.848C80.9861 23.848 80.9859 23.848 80.9857 23.848C80.9855 23.848 80.9854 23.848 80.9852 23.848C80.985 23.848 80.9848 23.848 80.9846 23.848C80.9844 23.848 80.9842 23.848 80.984 23.848C80.9839 23.848 80.9837 23.848 80.9835 23.848C80.9833 23.848 80.9831 23.848 80.9829 23.848C80.9827 23.848 80.9825 23.848 80.9824 23.848C80.9822 23.848 80.982 23.848 80.9818 23.848C80.9816 23.848 80.9814 23.848 80.9812 23.848C80.981 23.848 80.9808 23.848 80.9807 23.848C80.9805 23.848 80.9803 23.848 80.9801 23.848C80.9799 23.848 80.9797 23.848 80.9795 23.848C80.9793 23.848 80.9792 23.848 80.979 23.848C80.9788 23.848 80.9786 23.848 80.9784 23.848C80.9782 23.848 80.978 23.848 80.9778 23.848C80.9776 23.848 80.9775 23.848 80.9773 23.848C80.9771 23.848 80.9769 23.848 80.9767 23.848C80.9765 23.848 80.9763 23.848 80.9761 23.848C80.976 23.848 80.9758 23.848 80.9756 23.848C80.9754 23.848 80.9752 23.848 80.975 23.848C80.9748 23.848 80.9746 23.848 80.9744 23.848C80.9743 23.848 80.9741 23.848 80.9739 23.848C80.9737 23.848 80.9735 23.848 80.9733 23.848C80.9731 23.848 80.9729 23.848 80.9728 23.848C80.9726 23.848 80.9724 23.848 80.9722 23.848C80.972 23.848 80.9718 23.848 80.9716 23.848C80.9714 23.848 80.9712 23.848 80.9711 23.848C80.9709 23.848 80.9707 23.848 80.9705 23.848C80.9703 23.848 80.9701 23.848 80.9699 23.848C80.9697 23.848 80.9695 23.848 80.9694 23.848C80.9692 23.848 80.969 23.848 80.9688 23.848C80.9686 23.848 80.9684 23.848 80.9682 23.848C80.968 23.848 80.9679 23.848 80.9677 23.848C80.9675 23.848 80.9673 23.848 80.9671 23.848C80.9669 23.848 80.9667 23.848 80.9665 23.848C80.9663 23.848 80.9662 23.848 80.966 23.848C80.9658 23.848 80.9656 23.848 80.9654 23.848C80.9652 23.848 80.965 23.848 80.9648 23.848C80.9646 23.848 80.9645 23.848 80.9643 23.848C80.9641 23.848 80.9639 23.848 80.9637 23.848C80.9635 23.848 80.9633 23.848 80.9631 23.848C80.9629 23.848 80.9628 23.848 80.9626 23.848C80.9624 23.848 80.9622 23.848 80.962 23.848C80.9618 23.848 80.9616 23.848 80.9614 23.848C80.9612 23.848 80.961 23.848 80.9609 23.848C80.9607 23.848 80.9605 23.848 80.9603 23.848C80.9601 23.848 80.9599 23.848 80.9597 23.848C80.9595 23.848 80.9593 23.848 80.9592 23.848C80.959 23.848 80.9588 23.848 80.9586 23.848C80.9584 23.848 80.9582 23.848 80.958 23.848C80.9578 23.848 80.9576 23.848 80.9575 23.848C80.9573 23.848 80.9571 23.848 80.9569 23.848C80.9567 23.848 80.9565 23.848 80.9563 23.848C80.9561 23.848 80.9559 23.848 80.9557 23.848C80.9556 23.848 80.9554 23.848 80.9552 23.848C80.955 23.848 80.9548 23.848 80.9546 23.848C80.9544 23.848 80.9542 23.848 80.954 23.848C80.9538 23.848 80.9537 23.848 80.9535 23.848C80.9533 23.848 80.9531 23.848 80.9529 23.848C80.9527 23.848 80.9525 23.848 80.9523 23.848C80.9521 23.848 80.952 23.848 80.9518 23.848C80.9516 23.848 80.9514 23.848 80.9512 23.848C80.951 23.848 80.9508 23.848 80.9506 23.848C80.9504 23.848 80.9502 23.848 80.9501 23.848C80.9499 23.848 80.9497 23.848 80.9495 23.848C80.9493 23.848 80.9491 23.848 80.9489 23.848C80.9487 23.848 80.9485 23.848 80.9483 23.848C80.9482 23.848 80.948 23.848 80.9478 23.848C80.9476 23.848 80.9474 23.848 80.9472 23.848C80.947 23.848 80.9468 23.848 80.9466 23.848C80.9464 23.848 80.9462 23.848 80.9461 23.848C80.9459 23.848 80.9457 23.848 80.9455 23.848C80.9453 23.848 80.9451 23.848 80.9449 23.848C80.9447 23.848 80.9445 23.848 80.9443 23.848C80.9442 23.848 80.944 23.848 80.9438 23.848C80.9436 23.848 80.9434 23.848 80.9432 23.848C80.943 23.848 80.9428 23.848 80.9426 23.848C80.9424 23.848 80.9422 23.848 80.9421 23.848C80.9419 23.848 80.9417 23.848 80.9415 23.848C80.9413 23.848 80.9411 23.848 80.9409 23.848C80.9407 23.848 80.9405 23.848 80.9403 23.848C80.9401 23.848 80.94 23.848 80.9398 23.848C80.9396 23.848 80.9394 23.848 80.9392 23.848C80.939 23.848 80.9388 23.848 80.9386 23.848C80.9384 23.848 80.9382 23.848 80.938 23.848C80.9379 23.848 80.9377 23.848 80.9375 23.848C80.9373 23.848 80.9371 23.848 80.9369 23.848C80.9367 23.848 80.9365 23.848 80.9363 23.848C80.9361 23.848 80.9359 23.848 80.9358 23.848C80.9356 23.848 80.9354 23.848 80.9352 23.848C80.935 23.848 80.9348 23.848 80.9346 23.848C80.9344 23.848 80.9342 23.848 80.934 23.848C80.9338 23.848 80.9336 23.848 80.9335 23.848C80.9333 23.848 80.9331 23.848 80.9329 23.848C80.9327 23.848 80.9325 23.848 80.9323 23.848C80.9321 23.848 80.9319 23.848 80.9317 23.848C80.9315 23.848 80.9313 23.848 80.9312 23.848C80.931 23.848 80.9308 23.848 80.9306 23.848C80.9304 23.848 80.9302 23.848 80.93 23.848C80.9298 23.848 80.9296 23.848 80.9294 23.848C80.9292 23.848 80.929 23.848 80.9288 23.848C80.9287 23.848 80.9285 23.848 80.9283 23.848C80.9281 23.848 80.9279 23.848 80.9277 23.848C80.9275 23.848 80.9273 23.848 80.9271 23.848C80.9269 23.848 80.9267 23.848 80.9265 23.848C80.9263 23.848 80.9262 23.848 80.926 23.848C80.9258 23.848 80.9256 23.848 80.9254 23.848C80.9252 23.848 80.925 23.848 80.9248 23.848C80.9246 23.848 80.9244 23.848 80.9242 23.848C80.924 23.848 80.9238 23.848 80.9236 23.848C80.9235 23.848 80.9233 23.848 80.9231 23.848C80.9229 23.848 80.9227 23.848 80.9225 23.848C80.9223 23.848 80.9221 23.848 80.9219 23.848C80.9217 23.848 80.9215 23.848 80.9213 23.848C80.9211 23.848 80.9209 23.848 80.9208 23.848C80.9206 23.848 80.9204 23.848 80.9202 23.848C80.92 23.848 80.9198 23.848 80.9196 23.848C80.9194 23.848 80.9192 23.848 80.919 23.848C80.9188 23.848 80.9186 23.848 80.9184 23.848C80.9182 23.848 80.918 23.848 80.9179 23.848C80.9177 23.848 80.9175 23.848 80.9173 23.848C80.9171 23.848 80.9169 23.848 80.9167 23.848C80.9165 23.848 80.9163 23.848 80.9161 23.848C80.9159 23.848 80.9157 23.848 80.9155 23.848C80.9153 23.848 80.9151 23.848 80.9149 23.848C80.9148 23.848 80.9146 23.848 80.9144 23.848C80.9142 23.848 80.914 23.848 80.9138 23.848C80.9136 23.848 80.9134 23.848 80.9132 23.848C80.913 23.848 80.9128 23.848 80.9126 23.848C80.9124 23.848 80.9122 23.848 80.912 23.848C80.9118 23.848 80.9116 23.848 80.9115 23.848C80.9113 23.848 80.9111 23.848 80.9109 23.848C80.9107 23.848 80.9105 23.848 80.9103 23.848C80.9101 23.848 80.9099 23.848 80.9097 23.848C80.9095 23.848 80.9093 23.848 80.9091 23.848C80.9089 23.848 80.9087 23.848 80.9085 23.848C80.9083 23.848 80.9081 23.848 80.908 23.848C80.9078 23.848 80.9076 23.848 80.9074 23.848C80.9072 23.848 80.907 23.848 80.9068 23.848C80.9066 23.848 80.9064 23.848 80.9062 23.848C80.906 23.848 80.9058 23.848 80.9056 23.848C80.9054 23.848 80.9052 23.848 80.905 23.848C80.9048 23.848 80.9046 23.848 80.9044 23.848C80.9042 23.848 80.904 23.848 80.9039 23.848C80.9037 23.848 80.9035 23.848 80.9033 23.848C80.9031 23.848 80.9029 23.848 80.9027 23.848C80.9025 23.848 80.9023 23.848 80.9021 23.848C80.9019 23.848 80.9017 23.848 80.9015 23.848C80.9013 23.848 80.9011 23.848 80.9009 23.848C80.9007 23.848 80.9005 23.848 80.9003 23.848C80.9001 23.848 80.8999 23.848 80.8997 23.848C80.8995 23.848 80.8993 23.848 80.8992 23.848C80.899 23.848 80.8988 23.848 80.8986 23.848C80.8984 23.848 80.8982 23.848 80.898 23.848C80.8978 23.848 80.8976 23.848 80.8974 23.848C80.8972 23.848 80.897 23.848 80.8968 23.848C80.8966 23.848 80.8964 23.848 80.8962 23.848C80.896 23.848 80.8958 23.848 80.8956 23.848C80.8954 23.848 80.8952 23.848 80.895 23.848C80.8948 23.848 80.8946 23.848 80.8944 23.848C80.8942 23.848 80.894 23.848 80.8938 23.848C80.8936 23.848 80.8934 23.848 80.8933 23.848C80.8931 23.848 80.8929 23.848 80.8927 23.848C80.8925 23.848 80.8923 23.848 80.8921 23.848C80.8919 23.848 80.8917 23.848 80.8915 23.848C80.8913 23.848 80.8911 23.848 80.8909 23.848C80.8907 23.848 80.8905 23.848 80.8903 23.848C80.8901 23.848 80.8899 23.848 80.8897 23.848C80.8895 23.848 80.8893 23.848 80.8891 23.848C80.8889 23.848 80.8887 23.848 80.8885 23.848C80.8883 23.848 80.8881 23.848 80.8879 23.848C80.8877 23.848 80.8875 23.848 80.8873 23.848C80.8871 23.848 80.8869 23.848 80.8867 23.848C80.8865 23.848 80.8863 23.848 80.8861 23.848C80.8859 23.848 80.8857 23.848 80.8855 23.848C80.8853 23.848 80.8851 23.848 80.8849 23.848C80.8847 23.848 80.8845 23.848 80.8843 23.848C80.8841 23.848 80.884 23.848 80.8838 23.848C80.8836 23.848 80.8834 23.848 80.8832 23.848C80.883 23.848 80.8828 23.848 80.8826 23.848C80.8824 23.848 80.8822 23.848 80.882 23.848C80.8818 23.848 80.8816 23.848 80.8814 23.848C80.8812 23.848 80.881 23.848 80.8808 23.848C80.8806 23.848 80.8804 23.848 80.8802 23.848C80.88 23.848 80.8798 23.848 80.8796 23.848C80.8794 23.848 80.8792 23.848 80.879 23.848C80.8788 23.848 80.8786 23.848 80.8784 23.848C80.8782 23.848 80.878 23.848 80.8778 23.848C80.8776 23.848 80.8774 23.848 80.8772 23.848C80.877 23.848 80.8768 23.848 80.8766 23.848C80.8764 23.848 80.8762 23.848 80.876 23.848C80.8758 23.848 80.8756 23.848 80.8754 23.848C80.8752 23.848 80.875 23.848 80.8748 23.848C80.8746 23.848 80.8744 23.848 80.8742 23.848C80.874 23.848 80.8738 23.848 80.8736 23.848C80.8734 23.848 80.8732 23.848 80.873 23.848C80.8728 23.848 80.8726 23.848 80.8724 23.848C80.8722 23.848 80.872 23.848 80.8718 23.848C80.8716 23.848 80.8714 23.848 80.8712 23.848C80.871 23.848 80.8708 23.848 80.8706 23.848C80.8704 23.848 80.8702 23.848 80.87 23.848C80.8698 23.848 80.8696 23.848 80.8694 23.848C80.8691 23.848 80.8689 23.848 80.8687 23.848C80.8685 23.848 80.8683 23.848 80.8681 23.848C80.8679 23.848 80.8677 23.848 80.8675 23.848C80.8673 23.848 80.8671 23.848 80.8669 23.848C80.8667 23.848 80.8665 23.848 80.8663 23.848C80.8661 23.848 80.8659 23.848 80.8657 23.848C80.8655 23.848 80.8653 23.848 80.8651 23.848C80.8649 23.848 80.8647 23.848 80.8645 23.848C80.8643 23.848 80.8641 23.848 80.8639 23.848C80.8637 23.848 80.8635 23.848 80.8633 23.848C80.8631 23.848 80.8629 23.848 80.8627 23.848C80.8625 23.848 80.8623 23.848 80.8621 23.848C80.8619 23.848 80.8617 23.848 80.8615 23.848C80.8613 23.848 80.8611 23.848 80.8609 23.848C80.8607 23.848 80.8605 23.848 80.8603 23.848C80.86 23.848 80.8598 23.848 80.8596 23.848C80.8594 23.848 80.8592 23.848 80.859 23.848C80.8588 23.848 80.8586 23.848 80.8584 23.848C80.8582 23.848 80.858 23.848 80.8578 23.848C80.8576 23.848 80.8574 23.848 80.8572 23.848C80.857 23.848 80.8568 23.848 80.8566 23.848C80.8564 23.848 80.8562 23.848 80.856 23.848C80.8558 23.848 80.8556 23.848 80.8554 23.848C80.8552 23.848 80.855 23.848 80.8548 23.848C80.8545 23.848 80.8543 23.848 80.8541 23.848C80.8539 23.848 80.8537 23.848 80.8535 23.848C80.8533 23.848 80.8531 23.848 80.8529 23.848C80.8527 23.848 80.8525 23.848 80.8523 23.848C80.8521 23.848 80.8519 23.848 80.8517 23.848C80.8515 23.848 80.8513 23.848 80.8511 23.848C80.8509 23.848 80.8507 23.848 80.8505 23.848C80.8502 23.848 80.85 23.848 80.8498 23.848C80.8496 23.848 80.8494 23.848 80.8492 23.848C80.849 23.848 80.8488 23.848 80.8486 23.848C80.8484 23.848 80.8482 23.848 80.848 23.848C80.8478 23.848 80.8476 23.848 80.8474 23.848C80.8472 23.848 80.847 23.848 80.8468 23.848C80.8465 23.848 80.8463 23.848 80.8461 23.848C80.8459 23.848 80.8457 23.848 80.8455 23.848C80.8453 23.848 80.8451 23.848 80.8449 23.848C80.8447 23.848 80.8445 23.848 80.8443 23.848C80.8441 23.848 80.8439 23.848 80.8437 23.848C80.8435 23.848 80.8432 23.848 80.843 23.848C80.8428 23.848 80.8426 23.848 80.8424 23.848C80.8422 23.848 80.842 23.848 80.8418 23.848C80.8416 23.848 80.8414 23.848 80.8412 23.848C80.841 23.848 80.8408 23.848 80.8406 23.848C80.8403 23.848 80.8401 23.848 80.8399 23.848C80.8397 23.848 80.8395 23.848 80.8393 23.848C80.8391 23.848 80.8389 23.848 80.8387 23.848C80.8385 23.848 80.8383 23.848 80.8381 23.848C80.8379 23.848 80.8376 23.848 80.8374 23.848C80.8372 23.848 80.837 23.848 80.8368 23.848C80.8366 23.848 80.8364 23.848 80.8362 23.848C80.836 23.848 80.8358 23.848 80.8356 23.848C80.8354 23.848 80.8352 23.848 80.8349 23.848C80.8347 23.848 80.8345 23.848 80.8343 23.848C80.8341 23.848 80.8339 23.848 80.8337 23.848C80.8335 23.848 80.8333 23.848 80.8331 23.848C80.8329 23.848 80.8326 23.848 80.8324 23.848C80.8322 23.848 80.832 23.848 80.8318 23.848C80.8316 23.848 80.8314 23.848 80.8312 23.848C80.831 23.848 80.8308 23.848 80.8306 23.848C80.8303 23.848 80.8301 23.848 80.8299 23.848C80.8297 23.848 80.8295 23.848 80.8293 23.848C80.8291 23.848 80.8289 23.848 80.8287 23.848C80.8285 23.848 80.8282 23.848 80.828 23.848C80.8278 23.848 80.8276 23.848 80.8274 23.848C80.8272 23.848 80.827 23.848 80.8268 23.848C80.8266 23.848 80.8264 23.848 80.8261 23.848C80.8259 23.848 80.8257 23.848 80.8255 23.848C80.8253 23.848 80.8251 23.848 80.8249 23.848C80.8247 23.848 80.8245 23.848 80.8242 23.848C80.824 23.848 80.8238 23.848 80.8236 23.848C80.8234 23.848 80.8232 23.848 80.823 23.848C80.8228 23.848 80.8226 23.848 80.8223 23.848C80.8221 23.848 80.8219 23.848 80.8217 23.848C80.8215 23.848 80.8213 23.848 80.8211 23.848C80.8209 23.848 80.8207 23.848 80.8204 23.848C80.8202 23.848 80.82 23.848 80.8198 23.848C80.8196 23.848 80.8194 23.848 80.8192 23.848C80.819 23.848 80.8187 23.848 80.8185 23.848C80.8183 23.848 80.8181 23.848 80.8179 23.848C80.8177 23.848 80.8175 23.848 80.8173 23.848C80.817 23.848 80.8168 23.848 80.8166 23.848C80.8164 23.848 80.8162 23.848 80.816 23.848C80.8158 23.848 80.8156 23.848 80.8153 23.848C80.8151 23.848 80.8149 23.848 80.8147 23.848C80.8145 23.848 80.8143 23.848 80.8141 23.848C80.8138 23.848 80.8136 23.848 80.8134 23.848C80.8132 23.848 80.813 23.848 80.8128 23.848C80.8126 23.848 80.8123 23.848 80.8121 23.848C80.8119 23.848 80.8117 23.848 80.8115 23.848C80.8113 23.848 80.8111 23.848 80.8108 23.848C80.8106 23.848 80.8104 23.848 80.8102 23.848C80.81 23.848 80.8098 23.848 80.8096 23.848C80.8093 23.848 80.8091 23.848 80.8089 23.848C80.8087 23.848 80.8085 23.848 80.8083 23.848C80.8081 23.848 80.8078 23.848 80.8076 23.848C80.8074 23.848 80.8072 23.848 80.807 23.848C80.8068 23.848 80.8066 23.848 80.8063 23.848C80.8061 23.848 80.8059 23.848 80.8057 23.848C80.8055 23.848 80.8053 23.848 80.805 23.848C80.8048 23.848 80.8046 23.848 80.8044 23.848C80.8042 23.848 80.804 23.848 80.8037 23.848C80.8035 23.848 80.8033 23.848 80.8031 23.848C80.8029 23.848 80.8027 23.848 80.8025 23.848C80.8022 23.848 80.802 23.848 80.8018 23.848C80.8016 23.848 80.8014 23.848 80.8012 23.848C80.8009 23.848 80.8007 23.848 80.8005 23.848C80.8003 23.848 80.8001 23.848 80.7999 23.848C80.7996 23.848 80.7994 23.848 80.7992 23.848C80.799 23.848 80.7988 23.848 80.7985 23.848C80.7983 23.848 80.7981 23.848 80.7979 23.848C80.7977 23.848 80.7975 23.848 80.7972 23.848C80.797 23.848 80.7968 23.848 80.7966 23.848C80.7964 23.848 80.7962 23.848 80.7959 23.848C80.7957 23.848 80.7955 23.848 80.7953 23.848C80.7951 23.848 80.7948 23.848 80.7946 23.848C80.7944 23.848 80.7942 23.848 80.794 23.848C80.7938 23.848 80.7935 23.848 80.7933 23.848C80.7931 23.848 80.7929 23.848 80.7927 23.848C80.7924 23.848 80.7922 23.848 80.792 23.848C80.7918 23.848 80.7916 23.848 80.7913 23.848C80.7911 23.848 80.7909 23.848 80.7907 23.848C80.7905 23.848 80.7902 23.848 80.79 23.848C80.7898 23.848 80.7896 23.848 80.7894 23.848C80.7891 23.848 80.7889 23.848 80.7887 23.848C80.7885 23.848 80.7883 23.848 80.788 23.848C80.7878 23.848 80.7876 23.848 80.7874 23.848C80.7872 23.848 80.7869 23.848 80.7867 23.848C80.7865 23.848 80.7863 23.848 80.7861 23.848C80.7858 23.848 80.7856 23.848 80.7854 23.848C80.7852 23.848 80.785 23.848 80.7847 23.848C80.7845 23.848 80.7843 23.848 80.7841 23.848C80.7839 23.848 80.7836 23.848 80.7834 23.848C80.7832 23.848 80.783 23.848 80.7827 23.848C80.7825 23.848 80.7823 23.848 80.7821 23.848C80.7819 23.848 80.7816 23.848 80.7814 23.848C80.7812 23.848 80.781 23.848 80.7808 23.848C80.7805 23.848 80.7803 23.848 80.7801 23.848C80.7799 23.848 80.7796 23.848 80.7794 23.848C80.7792 23.848 80.779 23.848 80.7788 23.848C80.7785 23.848 80.7783 23.848 80.7781 23.848C80.7779 23.848 80.7776 23.848 80.7774 23.848C80.7772 23.848 80.777 23.848 80.7767 23.848C80.7765 23.848 80.7763 23.848 80.7761 23.848C80.7759 23.848 80.7756 23.848 80.7754 23.848C80.7752 23.848 80.775 23.848 80.7747 23.848C80.7745 23.848 80.7743 23.848 80.7741 23.848C80.7738 23.848 80.7736 23.848 80.7734 23.848C80.7732 23.848 80.7729 23.848 80.7727 23.848C80.7725 23.848 80.7723 23.848 80.772 23.848C80.7718 23.848 80.7716 23.848 80.7714 23.848C80.7711 23.848 80.7709 23.848 80.7707 23.848C80.7705 23.848 80.7702 23.848 80.77 23.848C80.7698 23.848 80.7696 23.848 80.7693 23.848C80.7691 23.848 80.7689 23.848 80.7687 23.848C80.7684 23.848 80.7682 23.848 80.768 23.848C80.7678 23.848 80.7675 23.848 80.7673 23.848C80.7671 23.848 80.7669 23.848 80.7666 23.848C80.7664 23.848 80.7662 23.848 80.766 23.848C80.7657 23.848 80.7655 23.848 80.7653 23.848C80.7651 23.848 80.7648 23.848 80.7646 23.848C80.7644 23.848 80.7641 23.848 80.7639 23.848C80.7637 23.848 80.7635 23.848 80.7632 23.848C80.763 23.848 80.7628 23.848 80.7626 23.848C80.7623 23.848 80.7621 23.848 80.7619 23.848C80.7616 23.848 80.7614 23.848 80.7612 23.848C80.761 23.848 80.7607 23.848 80.7605 23.848C80.7603 23.848 80.7601 23.848 80.7598 23.848C80.7596 23.848 80.7594 23.848 80.7591 23.848C80.7589 23.848 80.7587 23.848 80.7585 23.848C80.7582 23.848 80.758 23.848 80.7578 23.848C80.7575 23.848 80.7573 23.848 80.7571 23.848C80.7569 23.848 80.7566 23.848 80.7564 23.848C80.7562 23.848 80.7559 23.848 80.7557 23.848C80.7555 23.848 80.7553 23.848 80.755 23.848C80.7548 23.848 80.7546 23.848 80.7543 23.848C80.7541 23.848 80.7539 23.848 80.7536 23.848C80.7534 23.848 80.7532 23.848 80.753 23.848C80.7527 23.848 80.7525 23.848 80.7523 23.848C80.752 23.848 80.7518 23.848 80.7516 23.848C80.7513 23.848 80.7511 23.848 80.7509 23.848C80.7507 23.848 80.7504 23.848 80.7502 23.848C80.75 23.848 80.7497 23.848 80.7495 23.848C80.7493 23.848 80.749 23.848 80.7488 23.848C80.7486 23.848 80.7483 23.848 80.7481 23.848C80.7479 23.848 80.7477 23.848 80.7474 23.848C80.7472 23.848 80.747 23.848 80.7467 23.848C80.7465 23.848 80.7463 23.848 80.746 23.848C80.7458 23.848 80.7456 23.848 80.7453 23.848C80.7451 23.848 80.7449 23.848 80.7446 23.848C80.7444 23.848 80.7442 23.848 80.7439 23.848C80.7437 23.848 80.7435 23.848 80.7432 23.848C80.743 23.848 80.7428 23.848 80.7425 23.848C80.7423 23.848 80.7421 23.848 80.7418 23.848C80.7416 23.848 80.7414 23.848 80.7411 23.848C80.7409 23.848 80.7407 23.848 80.7404 23.848C80.7402 23.848 80.74 23.848 80.7397 23.848C80.7395 23.848 80.7393 23.848 80.739 23.848C80.7388 23.848 80.7386 23.848 80.7383 23.848C80.7381 23.848 80.7379 23.848 80.7376 23.848C80.7374 23.848 80.7372 23.848 80.7369 23.848C80.7367 23.848 80.7365 23.848 80.7362 23.848C80.736 23.848 80.7358 23.848 80.7355 23.848C80.7353 23.848 80.735 23.848 80.7348 23.848C80.7346 23.848 80.7343 23.848 80.7341 23.848C80.7339 23.848 80.7336 23.848 80.7334 23.848C80.7332 23.848 80.7329 23.848 80.7327 23.848C80.7325 23.848 80.7322 23.848 80.732 23.848C80.7317 23.848 80.7315 23.848 80.7313 23.848C80.731 23.848 80.7308 23.848 80.7306 23.848C80.7303 23.848 80.7301 23.848 80.7299 23.848C80.7296 23.848 80.7294 23.848 80.7291 23.848C80.7289 23.848 80.7287 23.848 80.7284 23.848C80.7282 23.848 80.728 23.848 80.7277 23.848C80.7275 23.848 80.7272 23.848 80.727 23.848C80.7268 23.848 80.7265 23.848 80.7263 23.848C80.7261 23.848 80.7258 23.848 80.7256 23.848C80.7253 23.848 80.7251 23.848 80.7249 23.848C80.7246 23.848 80.7244 23.848 80.7241 23.848C80.7239 23.848 80.7237 23.848 80.7234 23.848C80.7232 23.848 80.723 23.848 80.7227 23.848C80.7225 23.848 80.7222 23.848 80.722 23.848C80.7218 23.848 80.7215 23.848 80.7213 23.848C80.721 23.848 80.7208 23.848 80.7206 23.848C80.7203 23.848 80.7201 23.848 80.7198 23.848C80.7196 23.848 80.7194 23.848 80.7191 23.848C80.7189 23.848 80.7186 23.848 80.7184 23.848C80.7182 23.848 80.7179 23.848 80.7177 23.848C80.7174 23.848 80.7172 23.848 80.717 23.848C80.7167 23.848 80.7165 23.848 80.7162 23.848C80.716 23.848 80.7158 23.848 80.7155 23.848C80.7153 23.848 80.715 23.848 80.7148 23.848C80.7145 23.848 80.7143 23.848 80.7141 23.848C80.7138 23.848 80.7136 23.848 80.7133 23.848C80.7131 23.848 80.7129 23.848 80.7126 23.848C80.7124 23.848 80.7121 23.848 80.7119 23.848C80.7116 23.848 80.7114 23.848 80.7112 23.848C80.7109 23.848 80.7107 23.848 80.7104 23.848C80.7102 23.848 80.7099 23.848 80.7097 23.848C80.7095 23.848 80.7092 23.848 80.709 23.848C80.7087 23.848 80.7085 23.848 80.7082 23.848C80.708 23.848 80.7078 23.848 80.7075 23.848C80.7073 23.848 80.707 23.848 80.7068 23.848C80.7065 23.848 80.7063 23.848 80.706 23.848C80.7058 23.848 80.7056 23.848 80.7053 23.848C80.7051 23.848 80.7048 23.848 80.7046 23.848C80.7043 23.848 80.7041 23.848 80.7038 23.848C80.7036 23.848 80.7034 23.848 80.7031 23.848C80.7029 23.848 80.7026 23.848 80.7024 23.848C80.7021 23.848 80.7019 23.848 80.7016 23.848C80.7014 23.848 80.7011 23.848 80.7009 23.848C80.7006 23.848 80.7004 23.848 80.7002 23.848C80.6999 23.848 80.6997 23.848 80.6994 23.848C80.6992 23.848 80.6989 23.848 80.6987 23.848C80.6984 23.848 80.6982 23.848 80.6979 23.848C80.6977 23.848 80.6974 23.848 80.6972 23.848C80.697 23.848 80.6967 23.848 80.6965 23.848C80.6962 23.848 80.696 23.848 80.6957 23.848C80.6955 23.848 80.6952 23.848 80.695 23.848C80.6947 23.848 80.6945 23.848 80.6942 23.848C80.694 23.848 80.6937 23.848 80.6935 23.848C80.6932 23.848 80.693 23.848 80.6927 23.848C80.6925 23.848 80.6922 23.848 80.692 23.848C80.6917 23.848 80.6915 23.848 80.6912 23.848C80.691 23.848 80.6907 23.848 80.6905 23.848C80.6902 23.848 80.69 23.848 80.6897 23.848C80.6895 23.848 80.6892 23.848 80.689 23.848C80.6888 23.848 80.6885 23.848 80.6883 23.848V27.848ZM81.0083 27.848C82.1065 27.848 82.7407 27.7848 83.5538 27.8429L83.8387 23.8531C82.8598 23.7832 81.702 23.848 81.0083 23.848V27.848ZM83.5205 27.8403C83.5507 27.8429 83.5675 27.8497 83.5748 27.8532C83.5828 27.8571 83.5858 27.8603 83.5861 27.8606C83.5864 27.861 83.5853 27.8597 83.5842 27.857C83.5828 27.8535 83.5843 27.8544 83.5843 27.864H87.5843C87.5843 25.7373 85.9579 24.0398 83.872 23.8557L83.5205 27.8403ZM83.5852 27.8034C83.584 27.8424 83.5771 27.8618 83.5752 27.8665C83.5733 27.8711 83.5736 27.8689 83.5774 27.8648C83.5813 27.8605 83.5816 27.8623 83.5711 27.8675C83.5607 27.8727 83.5295 27.886 83.4692 27.8929L83.9233 31.8671C86.0276 31.6266 87.5211 29.9767 87.5833 27.9246L83.5852 27.8034ZM83.5205 27.8877C82.5098 27.9769 81.4522 28.008 80.4003 28.008V32.008C81.5243 32.008 82.7067 31.9751 83.872 31.8723L83.5205 27.8877ZM78.4003 30.008C78.4003 30.1177 78.3952 30.163 78.3891 30.3789C78.3844 30.5407 78.38 30.8021 78.4157 31.0881L82.3848 30.5919C82.3885 30.6219 82.3841 30.6113 82.3874 30.4931C82.3892 30.4298 82.3913 30.3862 82.3945 30.2934C82.3973 30.2143 82.4003 30.115 82.4003 30.008H78.4003ZM78.4165 31.0943C78.4981 31.7309 78.5876 32.3737 78.6754 33.0038C78.7636 33.6377 78.8501 34.2589 78.9285 34.8703L82.896 34.3617C82.8144 33.7251 82.7249 33.0823 82.6371 32.4522C82.5489 31.8183 82.4624 31.1971 82.384 30.5857L78.4165 31.0943ZM78.9344 34.9127C79.0316 35.561 79.1199 36.1522 79.1782 36.735L83.1583 36.337C83.0886 35.6398 82.9849 34.951 82.8901 34.3193L78.9344 34.9127ZM79.1737 36.6837C79.1725 36.6668 79.175 36.6637 79.1725 36.6733C79.1714 36.6776 79.1695 36.6834 79.1665 36.6902C79.1636 36.697 79.1601 36.7035 79.1564 36.7094C79.1527 36.7153 79.1494 36.7194 79.1473 36.7219C79.1452 36.7243 79.1449 36.7242 79.1472 36.7223C79.1521 36.7183 79.1697 36.7052 79.202 36.694L80.5105 40.474C82.2603 39.8683 83.2889 38.0912 83.1628 36.3883L79.1737 36.6837ZM79.154 36.7113C79.0925 36.7344 79.0581 36.7433 79.0449 36.7462C79.0328 36.7488 79.0495 36.744 79.0883 36.744V40.744C79.6719 40.744 80.1783 40.5992 80.5585 40.4567L79.154 36.7113ZM79.0883 36.744C79.0789 36.744 79.0771 36.743 79.0809 36.7439C79.0848 36.7448 79.0894 36.7465 79.093 36.7483C79.0965 36.7501 79.0946 36.7498 79.0875 36.7438C79.0802 36.7376 79.0652 36.7236 79.045 36.6971L75.8675 39.1269C76.6429 40.1408 77.7945 40.744 79.0883 40.744V36.744ZM78.9927 36.6316C79.0462 36.6958 78.9274 36.5466 78.756 35.9374C78.6084 35.4125 78.4759 34.7504 78.3643 34.0356C78.1403 32.6005 78.0295 31.1448 78.0157 30.5386L74.0168 30.6294C74.035 31.4312 74.1642 33.0635 74.4122 34.6524C74.5366 35.4496 74.6981 36.2835 74.9055 37.0206C75.0891 37.6734 75.3863 38.5522 75.9198 39.1924L78.9927 36.6316ZM78.0163 30.584C78.0163 30.5001 78.0111 30.4274 78.0051 30.3697C77.999 30.3116 77.9913 30.2614 77.9842 30.2216C77.9706 30.1447 77.9552 30.0832 77.9465 30.0497C77.9375 30.0152 77.9291 29.9866 77.9263 29.9769C77.9254 29.9738 77.9246 29.9711 77.9241 29.9692C77.9234 29.967 77.9232 29.9662 77.9229 29.9651C77.9223 29.9632 77.9226 29.9643 77.9233 29.9666C77.925 29.9727 77.9394 30.0224 77.9528 30.0915C77.9663 30.1611 77.9843 30.2772 77.9843 30.424H73.9843C73.9843 30.6028 74.0062 30.7509 74.0257 30.8515C74.0451 30.9516 74.0675 31.0313 74.0772 31.0654C74.0799 31.0747 74.0822 31.0827 74.0836 31.0875C74.0858 31.0949 74.0852 31.093 74.0859 31.0955C74.0869 31.0987 74.082 31.0823 74.076 31.0593C74.0703 31.0373 74.0574 30.9866 74.0456 30.9196C74.0394 30.8846 74.0323 30.8392 74.0267 30.7856C74.0212 30.7324 74.0163 30.6639 74.0163 30.584H78.0163ZM75.6555 28.4512C75.6599 28.4505 75.6547 28.4515 75.633 28.4538C75.609 28.4563 75.5816 28.4586 75.5302 28.4629C75.4472 28.4698 75.2697 28.4835 75.0794 28.5152L75.7371 32.4608C75.7326 32.4615 75.7378 32.4605 75.7595 32.4582C75.7835 32.4557 75.8109 32.4534 75.8623 32.4491C75.9453 32.4422 76.1228 32.4285 76.313 32.3968L75.6555 28.4512ZM75.3031 28.4908C75.0534 28.5039 74.9276 28.4958 74.8576 28.484C74.8088 28.4757 74.8217 28.4717 74.8453 28.4879L72.5792 31.7841C73.6636 32.5296 74.8147 32.522 75.5134 32.4852L75.3031 28.4908ZM74.8048 28.4608C74.7958 28.4549 74.7903 28.4504 74.7874 28.4478C74.7844 28.4452 74.7835 28.4439 74.7838 28.4443C74.784 28.4446 74.7851 28.446 74.7865 28.4484C74.788 28.4508 74.7894 28.4536 74.7906 28.4567C74.7918 28.4597 74.7926 28.4625 74.7931 28.4646C74.7936 28.4668 74.7937 28.4679 74.7936 28.4677C74.7936 28.4674 74.7935 28.4654 74.7938 28.4613C74.7941 28.4573 74.7949 28.4508 74.797 28.4417L70.8995 27.5423C70.522 29.1781 71.1688 30.8649 72.6197 31.8112L74.8048 28.4608ZM74.797 28.4417C74.7965 28.4441 74.7945 28.4501 74.7906 28.4565C74.7869 28.4625 74.785 28.4632 74.789 28.4598C74.7956 28.4541 74.8394 28.4199 74.9455 28.4052L74.399 24.4428C72.7465 24.6707 71.2993 25.8095 70.8995 27.5423L74.797 28.4417ZM74.8256 28.4181C75.0734 28.3991 75.3238 28.371 75.5331 28.3478C75.7558 28.323 75.9374 28.3031 76.1056 28.2901L75.7989 24.3019C75.5511 24.3209 75.3007 24.349 75.0914 24.3722C74.8687 24.397 74.6871 24.4169 74.5189 24.4299L74.8256 28.4181ZM75.9523 28.296C76.3047 28.296 77.1053 28.2236 77.7047 27.5044C77.9561 27.2027 78.0708 26.8989 78.126 26.7184C78.1786 26.5462 78.204 26.3912 78.213 26.3368L74.2675 25.6792C74.2605 25.7208 74.2699 25.6498 74.3005 25.5496C74.3337 25.4411 74.4204 25.1973 74.6318 24.9436C75.1512 24.3204 75.8238 24.296 75.9523 24.296V28.296ZM78.2147 26.3265C78.5092 24.5008 79.0055 22.7871 79.7559 21.142L76.1166 19.482C75.203 21.4849 74.6113 23.5472 74.2658 25.6895L78.2147 26.3265ZM79.7552 21.1435C80.4675 19.5854 81.5774 18.8265 83.3097 18.6898L82.9948 14.7022C79.8631 14.9494 77.453 16.5586 76.1173 19.4805L79.7552 21.1435ZM83.3231 18.6887C83.9715 18.6331 84.6122 18.7908 85.2593 19.179L87.3172 15.749C86.0443 14.9852 84.573 14.5669 82.9814 14.7033L83.3231 18.6887ZM88.6605 22.776L88.605 24.7752L88.6327 24.776H88.6605V22.776ZM88.7245 18.584L88.7785 16.5847L88.7515 16.584H88.7245V18.584ZM90.7725 20.728L88.7732 20.674L88.7725 20.701V20.728H90.7725ZM90.9645 25.944L92.9615 25.8351L92.9603 25.8128L92.9586 25.7906L90.9645 25.944ZM91.0605 36.888L89.1809 36.2045L89.1537 36.2794L89.1325 36.3561L91.0605 36.888ZM88.9485 38.296L89.1411 36.3053L89.1161 36.3029L89.091 36.3011L88.9485 38.296ZM87.1565 36.6L89.1459 36.3942L89.1451 36.3867L89.1443 36.3791L87.1565 36.6ZM86.9965 33.976L84.9967 34.0013L84.997 34.0257L84.9979 34.05L86.9965 33.976ZM86.9005 26.424H84.9005V26.4368L84.9007 26.4496L86.9005 26.424ZM87.2845 25.08L88.9289 26.2184L88.9623 26.1701L88.9929 26.1199L87.2845 25.08ZM89.4605 24.184L89.9272 22.2392L89.9108 22.2353L89.8944 22.2316L89.4605 24.184ZM88.716 20.7768C88.6912 20.7761 88.6765 20.7712 88.6678 20.7673C88.658 20.763 88.6491 20.7568 88.6412 20.7487C88.6333 20.7405 88.6266 20.7305 88.6218 20.7187C88.6174 20.7079 88.6125 20.6908 88.6125 20.664H84.6125C84.6125 22.8909 86.3624 24.7129 88.605 24.7752L88.716 20.7768ZM88.6125 20.664C88.6125 20.6638 88.6125 20.6641 88.6124 20.6647C88.6124 20.6653 88.6123 20.6659 88.6122 20.6664C88.6119 20.6674 88.612 20.6668 88.6131 20.6643C88.6156 20.6585 88.6234 20.6447 88.6403 20.6282C88.6575 20.6116 88.6773 20.599 88.6952 20.5915C88.7119 20.5845 88.7218 20.584 88.7245 20.584V16.584C86.5596 16.584 84.6125 18.3487 84.6125 20.664H88.6125ZM88.6705 20.5833C88.7105 20.5844 88.733 20.5922 88.743 20.5966C88.7538 20.6014 88.7586 20.6058 88.7605 20.6078C88.7624 20.6097 88.7644 20.6124 88.7666 20.6179C88.7684 20.6226 88.7742 20.6393 88.7732 20.674L92.7718 20.782C92.8342 18.4723 91.045 16.646 88.7785 16.5847L88.6705 20.5833ZM88.7725 20.728C88.7725 20.7349 88.7717 20.7335 88.7732 20.73C88.774 20.7283 88.7726 20.7325 88.7647 20.74C88.7477 20.7563 88.7135 20.776 88.6605 20.776V24.776C90.836 24.776 92.7725 23.0639 92.7725 20.728H88.7725ZM88.9675 26.0529C89.0612 27.7715 89.2205 34.3268 89.2205 35.832H93.2205C93.2205 34.2652 93.0598 27.6365 92.9615 25.8351L88.9675 26.0529ZM89.2205 35.832C89.2205 36.0677 89.1973 36.1595 89.1809 36.2045L92.9401 37.5715C93.1797 36.9125 93.2205 36.3003 93.2205 35.832H89.2205ZM89.1325 36.3561C89.1316 36.3596 89.1333 36.3522 89.142 36.3401C89.1505 36.3284 89.1609 36.3187 89.1711 36.3119C89.1811 36.3052 89.187 36.304 89.1851 36.3044C89.1835 36.3048 89.1697 36.3081 89.1411 36.3053L88.7559 40.2867C90.6643 40.4714 92.4606 39.3334 92.9885 37.4199L89.1325 36.3561ZM89.091 36.3011C89.1057 36.3021 89.1124 36.3052 89.1125 36.3052C89.1128 36.3053 89.1124 36.3052 89.1117 36.3047C89.1111 36.3043 89.1109 36.3041 89.1113 36.3045C89.1117 36.3048 89.1182 36.3109 89.1262 36.3262C89.1349 36.343 89.1431 36.3668 89.1459 36.3942L85.1671 36.8058C85.371 38.7764 87.0211 40.1634 88.806 40.2909L89.091 36.3011ZM89.1443 36.3791C89.0579 35.6018 89.0277 34.7821 88.9951 33.902L84.9979 34.05C85.0293 34.8979 85.0631 35.8702 85.1687 36.8209L89.1443 36.3791ZM88.9963 33.9507C88.9643 31.4227 88.9323 28.8946 88.9003 26.3984L84.9007 26.4496C84.9327 28.9454 84.9647 31.4733 84.9967 34.0013L88.9963 33.9507ZM88.9005 26.424C88.9005 26.3161 88.9114 26.264 88.9164 26.2455C88.9197 26.2332 88.9216 26.229 88.9289 26.2184L85.6401 23.9416C85.0596 24.7801 84.9005 25.6594 84.9005 26.424H88.9005ZM88.9929 26.1199C88.993 26.1197 88.9923 26.1208 88.9908 26.1226C88.9893 26.1244 88.9874 26.1263 88.9852 26.1282C88.9806 26.132 88.9771 26.1337 88.976 26.1342C88.9751 26.1345 88.978 26.1332 88.9855 26.1326C88.9928 26.132 89.0064 26.1319 89.0266 26.1364L89.8944 22.2316C88.237 21.8633 86.4914 22.5363 85.5761 24.0401L88.9929 26.1199ZM88.9938 26.1288C88.9707 26.1232 88.9602 26.1166 88.9601 26.1165C88.9598 26.1163 88.9611 26.1171 88.9635 26.1192C88.9659 26.1213 88.9686 26.124 88.9714 26.1272C88.9774 26.1343 88.9793 26.1387 88.9785 26.1369C88.9774 26.1346 88.9722 26.1214 88.9704 26.0974L92.9586 25.7906C92.8271 24.0813 91.5593 22.6309 89.9272 22.2392L88.9938 26.1288ZM104.187 24.664L106.165 24.373L106.159 24.3283L106.15 24.284L104.187 24.664ZM102.683 27L102.157 25.0705L102.157 25.0705L102.683 27ZM101.595 27.224L101.924 29.1968L101.938 29.1944L101.953 29.1917L101.595 27.224ZM98.8108 28.856L97.3128 27.5308L97.31 27.5339L98.8108 28.856ZM97.6908 31.992L95.692 32.0634L95.6931 32.0942L95.6952 32.125L97.6908 31.992ZM97.9788 36.28L99.9749 36.1552L99.9743 36.147L97.9788 36.28ZM97.8188 37.784L99.6369 38.6173L99.6665 38.5527L99.6914 38.4862L97.8188 37.784ZM95.8348 39.032L95.6971 41.0273L95.7275 41.0294L95.7579 41.0305L95.8348 39.032ZM93.9468 37.464L95.9024 37.0449L95.8972 37.021L95.8915 36.9973L93.9468 37.464ZM93.5948 35.064L91.5985 35.1862L91.5996 35.2049L91.6011 35.2235L93.5948 35.064ZM93.4348 25.688L91.4386 25.5632L91.4379 25.5747L91.4373 25.5861L93.4348 25.688ZM93.4348 24.184H95.4348V24.1314L95.432 24.0789L93.4348 24.184ZM93.9148 22.552L95.4765 23.8014L95.4765 23.8014L93.9148 22.552ZM95.9628 21.816L95.513 23.7648L95.5283 23.7683L95.5437 23.7716L95.9628 21.816ZM97.6908 24.376L95.7023 24.591L96.0116 27.4517L98.5852 26.1648L97.6908 24.376ZM97.8188 24.312L96.6803 22.6676L96.5321 22.7703L96.4045 22.8978L97.8188 24.312ZM101.947 23.032L101.771 21.0397L101.748 21.0417L101.726 21.0442L101.947 23.032ZM102.208 24.955C102.215 25.0037 102.211 25.0324 102.209 25.0439C102.207 25.0553 102.204 25.0568 102.207 25.053C102.209 25.0489 102.212 25.0472 102.21 25.0485C102.209 25.0496 102.194 25.0603 102.157 25.0705L103.209 28.9295C105.273 28.3665 106.468 26.4287 106.165 24.373L102.208 24.955ZM102.157 25.0705C101.91 25.1376 101.638 25.1834 101.237 25.2563L101.953 29.1917C102.256 29.1366 102.751 29.0544 103.209 28.9295L102.157 25.0705ZM101.266 25.2512C99.5539 25.5366 98.2715 26.447 97.3128 27.5309L100.309 30.1811C100.822 29.601 101.332 29.2954 101.924 29.1968L101.266 25.2512ZM97.31 27.5339C96.8295 28.0794 96.1993 28.7433 95.8993 29.5833C95.5994 30.4229 95.666 31.336 95.692 32.0634L99.6895 31.9206C99.6725 31.4451 99.6646 31.1908 99.671 31.0046C99.6766 30.8452 99.6909 30.8597 99.6662 30.9287C99.6416 30.9977 99.6212 31.0002 99.7175 30.8739C99.8303 30.726 99.9972 30.5348 100.311 30.1781L97.31 27.5339ZM95.6952 32.125C95.7432 32.8459 95.7913 33.5586 95.8393 34.2705C95.8873 34.9826 95.9352 35.6939 95.9832 36.413L99.9743 36.147C99.9263 35.4261 99.8782 34.7134 99.8302 34.0015C99.7822 33.2894 99.7343 32.5781 99.6863 31.859L95.6952 32.125ZM95.9826 36.4048C96.0104 36.8488 95.9846 36.979 95.9461 37.0818L99.6914 38.4862C100.037 37.565 100.011 36.7352 99.9749 36.1552L95.9826 36.4048ZM96.0006 36.9507C95.9926 36.9683 95.9718 36.9961 95.938 37.0175C95.9048 37.0385 95.8925 37.0327 95.9116 37.0335L95.7579 41.0305C97.4388 41.0952 98.9642 40.0849 99.6369 38.6173L96.0006 36.9507ZM95.9724 37.0367C95.9044 37.0321 95.8796 37.0107 95.8822 37.0129C95.8834 37.0139 95.8887 37.0187 95.8945 37.028C95.9006 37.0379 95.9024 37.0452 95.9024 37.0449L91.9911 37.8831C92.3891 39.7404 93.9741 40.9084 95.6971 41.0273L95.9724 37.0367ZM95.8915 36.9973C95.734 36.3408 95.6485 35.6565 95.5884 34.9045L91.6011 35.2235C91.669 36.0715 91.7755 36.9872 92.002 37.9307L95.8915 36.9973ZM95.591 34.9418C95.4002 31.8248 95.278 28.8109 95.4322 25.7899L91.4373 25.5861C91.2715 28.8371 91.4053 32.0312 91.5985 35.1862L95.591 34.9418ZM95.4309 25.8128C95.4674 25.2288 95.4348 24.5156 95.4348 24.184H91.4348C91.4348 24.8764 91.4661 25.1232 91.4386 25.5632L95.4309 25.8128ZM95.432 24.0789C95.4249 23.9451 95.4388 23.8803 95.445 23.8582C95.449 23.8437 95.4536 23.8299 95.4765 23.8014L92.353 21.3026C91.5974 22.2471 91.3858 23.3071 91.4375 24.2891L95.432 24.0789ZM95.4765 23.8014C95.5107 23.7587 95.5331 23.7405 95.5388 23.7362C95.5436 23.7326 95.5358 23.7391 95.5162 23.7464C95.5071 23.7498 95.4975 23.7526 95.4883 23.7545C95.479 23.7564 95.4721 23.7571 95.4683 23.7573C95.4597 23.7577 95.473 23.7555 95.513 23.7648L96.4125 19.8672C94.7662 19.4873 93.3021 20.1162 92.353 21.3026L95.4765 23.8014ZM95.5437 23.7716C95.6341 23.791 95.6276 23.8053 95.5829 23.7719C95.5375 23.7379 95.5201 23.705 95.5258 23.7155C95.5374 23.7368 95.5704 23.8083 95.607 23.9667C95.6437 24.1261 95.6736 24.3254 95.7023 24.591L99.6792 24.161C99.6136 23.5545 99.4922 22.6364 99.0397 21.8045C98.5142 20.8382 97.6268 20.1272 96.3818 19.8604L95.5437 23.7716ZM98.5852 26.1648C98.518 26.1985 98.3866 26.2501 98.5095 26.201C98.5562 26.1823 98.6724 26.1348 98.8083 26.0549C98.956 25.968 99.0998 25.8594 99.233 25.7262L96.4045 22.8978C96.5217 22.7806 96.6495 22.684 96.7802 22.6071C96.8991 22.5372 96.9973 22.4977 97.024 22.487C97.1069 22.4539 96.9275 22.5215 96.7963 22.5872L98.5852 26.1648ZM98.9572 25.9564C99.767 25.3957 100.772 25.1749 102.168 25.0198L101.726 21.0442C100.242 21.2091 98.3665 21.5003 96.6803 22.6676L98.9572 25.9564ZM102.123 25.0243C102.162 25.0208 102.191 25.0314 102.213 25.0477C102.239 25.0666 102.229 25.073 102.223 25.044L106.15 24.284C105.758 22.2552 103.848 20.8564 101.771 21.0397L102.123 25.0243ZM128.665 32.056L126.665 32.096L126.665 32.1046L126.665 32.1131L128.665 32.056ZM128.665 35.448L126.668 35.3339L126.667 35.341L126.667 35.3481L128.665 35.448ZM128.249 37.368L126.361 36.7073L126.356 36.7214L126.351 36.7355L128.249 37.368ZM125.913 38.616L125.458 40.5637L125.501 40.5737L125.544 40.5817L125.913 38.616ZM124.281 36.376L122.284 36.2512L122.284 36.2512L124.281 36.376ZM124.121 30.296L122.124 30.4208L122.126 30.4532L122.13 30.4856L124.121 30.296ZM123.801 28.824L125.733 28.3087L125.705 28.2056L125.667 28.106L123.801 28.824ZM123.001 28.376L123.234 30.3623L123.259 30.3594L123.283 30.3559L123.001 28.376ZM121.625 29.048L120.052 27.8124L120.038 27.83L120.025 27.848L121.625 29.048ZM120.825 30.232L122.659 31.0282L122.676 30.9894L122.691 30.95L120.825 30.232ZM119.161 35.512L121.101 35.9971L121.114 35.9443L121.124 35.891L119.161 35.512ZM119.033 36.664L117.06 36.3352L117.058 36.3455L119.033 36.664ZM117.145 38.488L117.269 40.4841L117.278 40.4836L117.145 38.488ZM114.969 37.016L116.905 36.5162L116.895 36.4786L116.884 36.4413L114.969 37.016ZM114.713 35.032L112.717 35.1622L112.719 35.1919L112.722 35.2216L114.713 35.032ZM114.425 30.584L116.42 30.4538L116.418 30.4241L116.415 30.3944L114.425 30.584ZM113.945 28.632L115.752 27.7758L115.722 27.7125L115.688 27.6515L113.945 28.632ZM112.889 28.184L112.353 26.257L112.248 26.2863L112.146 26.327L112.889 28.184ZM112.377 28.376L111.348 26.661L111.327 26.6734L111.306 26.6864L112.377 28.376ZM109.817 30.552L111.416 31.752L111.427 31.7386L111.436 31.725L109.817 30.552ZM109.689 31.032L111.687 30.9487L111.68 30.7928L111.65 30.6398L109.689 31.032ZM109.945 35.672L111.942 35.5641L111.941 35.5556L111.941 35.5472L109.945 35.672ZM108.153 37.944L108.393 39.9295L108.414 39.9269L108.435 39.9239L108.153 37.944ZM105.913 36.216L107.884 35.8781L107.881 35.8644L105.913 36.216ZM105.657 33.528L107.655 33.4566L107.654 33.4318L107.653 33.407L105.657 33.528ZM105.305 27.224L103.306 27.298L103.306 27.3064L103.307 27.3148L105.305 27.224ZM105.273 24.664L103.273 24.6034L103.273 24.6337V24.664H105.273ZM106.873 22.552L107.278 24.5105L107.285 24.5091L106.873 22.552ZM109.337 24.344L111.327 24.145L111.324 24.1173L111.32 24.0897L109.337 24.344ZM109.401 25.336L107.407 25.5021L107.708 29.1056L110.601 26.936L109.401 25.336ZM117.657 26.648L115.882 27.5696L115.932 27.6665L115.992 27.7574L117.657 26.648ZM117.817 26.936L116.152 28.0454L117.506 30.0753L119.231 28.3502L117.817 26.936ZM118.521 26.168L119.935 27.5822L119.956 27.5608L119.977 27.5387L118.521 26.168ZM124.153 24.184L124.463 22.2082L124.453 22.2067L124.443 22.2053L124.153 24.184ZM126.665 32.1131C126.698 33.247 126.726 34.3136 126.668 35.3339L130.661 35.5621C130.731 34.3424 130.695 33.105 130.664 31.9989L126.665 32.1131ZM126.667 35.3481C126.648 35.7289 126.549 36.1699 126.361 36.7073L130.136 38.0287C130.396 37.2861 130.617 36.4471 130.662 35.5479L126.667 35.3481ZM126.351 36.7355C126.355 36.7254 126.365 36.7042 126.384 36.6822C126.402 36.6615 126.418 36.6517 126.423 36.649C126.431 36.6447 126.385 36.6698 126.281 36.6503L125.544 40.5817C127.361 40.9224 129.452 40.0809 130.146 38.0005L126.351 36.7355ZM126.367 36.6683C126.39 36.6738 126.394 36.6796 126.382 36.671C126.369 36.6619 126.347 36.6434 126.326 36.614C126.304 36.5847 126.29 36.555 126.283 36.5311C126.276 36.508 126.277 36.4979 126.277 36.5008L122.284 36.2512C122.161 38.2244 123.523 40.1121 125.458 40.5637L126.367 36.6683ZM126.277 36.5008C126.413 34.311 126.309 32.182 126.111 30.1064L122.13 30.4856C122.316 32.442 122.404 34.345 122.284 36.2512L126.277 36.5008ZM126.117 30.1712C126.068 29.3998 125.818 28.628 125.733 28.3087L121.868 29.3393C122.039 29.98 122.109 30.1682 122.124 30.4208L126.117 30.1712ZM125.667 28.106C125.53 27.7505 125.22 27.0774 124.47 26.6664C123.754 26.2736 123.043 26.3497 122.718 26.3961L123.283 30.3559C123.406 30.3383 123.015 30.4304 122.547 30.1736C122.045 29.8986 121.911 29.4815 121.934 29.542L125.667 28.106ZM122.767 26.3897C121.979 26.4824 120.875 26.7648 120.052 27.8124L123.197 30.2836C123.183 30.3019 123.16 30.3262 123.129 30.35C123.098 30.3733 123.072 30.3869 123.059 30.393C123.046 30.3985 123.051 30.3951 123.08 30.388C123.11 30.3806 123.159 30.3712 123.234 30.3623L122.767 26.3897ZM120.025 27.848C119.97 27.9207 119.911 27.995 119.829 28.0991C119.754 28.1948 119.659 28.3157 119.565 28.4438C119.384 28.6897 119.133 29.0584 118.958 29.514L122.691 30.95C122.676 30.9896 122.681 30.9583 122.788 30.8122C122.838 30.7443 122.895 30.6712 122.972 30.5739C123.042 30.485 123.135 30.3673 123.224 30.248L120.025 27.848ZM118.99 29.4358C118.205 31.2453 117.58 33.1453 117.197 35.133L121.124 35.891C121.445 34.2307 121.972 32.6107 122.659 31.0282L118.99 29.4358ZM117.22 35.0269C117.125 35.4098 117.101 35.7592 117.088 35.9632C117.073 36.2156 117.07 36.2722 117.06 36.3352L121.005 36.9928C121.059 36.6718 121.072 36.3444 121.081 36.2128C121.086 36.1269 121.09 36.0763 121.095 36.0379C121.099 36.0023 121.102 35.9921 121.101 35.9971L117.22 35.0269ZM117.058 36.3455C117.045 36.4264 117.011 36.4739 116.992 36.4926C116.983 36.5013 116.98 36.5015 116.985 36.4989C116.992 36.4959 117.002 36.4931 117.011 36.4924L117.278 40.4836C119.282 40.35 120.718 38.7756 121.007 36.9825L117.058 36.3455ZM117.02 36.4919C116.893 36.4998 116.851 36.4662 116.866 36.4759C116.873 36.4808 116.886 36.4915 116.897 36.5074C116.909 36.5239 116.909 36.5308 116.905 36.5162L113.032 37.5158C113.567 39.5895 115.456 40.5975 117.269 40.4841L117.02 36.4919ZM116.884 36.4413C116.768 36.0531 116.792 35.77 116.703 34.8424L112.722 35.2216C112.761 35.638 112.785 36.6989 113.053 37.5907L116.884 36.4413ZM116.708 34.9018C116.66 34.1667 116.612 33.4234 116.564 32.6792C116.516 31.9354 116.468 31.1907 116.42 30.4538L112.429 30.7142C112.477 31.4493 112.525 32.1926 112.573 32.9368C112.621 33.6806 112.669 34.4253 112.717 35.1622L116.708 34.9018ZM116.415 30.3944C116.341 29.6145 116.181 28.6822 115.752 27.7758L112.137 29.4882C112.284 29.7978 112.38 30.2095 112.434 30.7736L116.415 30.3944ZM115.688 27.6515C115.536 27.3816 115.142 26.6792 114.324 26.3226C113.484 25.9564 112.691 26.1633 112.353 26.257L113.424 30.111C113.508 30.0877 113.468 30.106 113.362 30.1117C113.233 30.1185 112.996 30.1073 112.725 29.9894C112.458 29.8729 112.295 29.7118 112.223 29.6275C112.163 29.5586 112.154 29.5281 112.201 29.6125L115.688 27.6515ZM112.146 26.327C112.176 26.315 112.19 26.3113 112.164 26.3193C112.152 26.3233 112.139 26.3272 112.114 26.3349C112.092 26.3417 112.06 26.3514 112.026 26.3621C111.902 26.4015 111.633 26.4895 111.348 26.661L113.405 30.091C113.337 30.132 113.283 30.1559 113.255 30.167C113.23 30.1775 113.218 30.1804 113.239 30.1739C113.249 30.1706 113.261 30.1668 113.283 30.1602C113.302 30.1545 113.332 30.1452 113.363 30.1357C113.423 30.1167 113.521 30.085 113.631 30.041L112.146 26.327ZM111.306 26.6864C110.338 27.2998 109.114 28.1127 108.197 29.379L111.436 31.725C111.863 31.1353 112.495 30.6682 113.447 30.0656L111.306 26.6864ZM108.217 29.352C107.882 29.7982 107.554 30.5579 107.727 31.4242L111.65 30.6398C111.711 30.948 111.667 31.1912 111.628 31.3294C111.586 31.4737 111.519 31.6154 111.416 31.752L108.217 29.352ZM107.69 31.1153C107.755 32.6747 107.852 34.2619 107.948 35.7968L111.941 35.5472C111.845 34.0101 111.75 32.4613 111.687 30.9487L107.69 31.1153ZM107.947 35.7799C107.951 35.8548 107.942 35.9015 107.935 35.9245C107.928 35.9474 107.922 35.9541 107.923 35.9522C107.925 35.95 107.927 35.9483 107.927 35.9487C107.926 35.949 107.91 35.9583 107.87 35.9641L108.435 39.9239C110.648 39.6078 112.058 37.7144 111.942 35.5641L107.947 35.7799ZM107.912 35.9585C107.914 35.9582 107.919 35.9585 107.924 35.9597C107.927 35.9605 107.925 35.9608 107.921 35.9575C107.917 35.9543 107.91 35.9481 107.904 35.9375C107.898 35.9277 107.889 35.9096 107.884 35.8781L103.941 36.5539C104.306 38.6842 106.238 40.1907 108.393 39.9295L107.912 35.9585ZM107.881 35.8644C107.745 35.1007 107.686 34.31 107.655 33.4566L103.658 33.5994C103.691 34.538 103.76 35.5393 103.944 36.5676L107.881 35.8644ZM107.653 33.407C107.525 31.2907 107.398 29.227 107.302 27.1332L103.307 27.3148C103.403 29.445 103.532 31.5413 103.66 33.649L107.653 33.407ZM107.303 27.15C107.273 26.3289 107.273 25.5335 107.273 24.664H103.273C103.273 25.5225 103.272 26.3911 103.306 27.298L107.303 27.15ZM107.272 24.7246C107.276 24.5806 107.32 24.5061 107.334 24.4867C107.341 24.4776 107.341 24.4816 107.328 24.49C107.314 24.4991 107.295 24.5069 107.278 24.5105L106.467 20.5935C104.461 21.0085 103.328 22.8092 103.273 24.6034L107.272 24.7246ZM107.285 24.5091C107.321 24.5013 107.336 24.5055 107.333 24.5049C107.331 24.5045 107.326 24.5026 107.322 24.4996C107.318 24.4967 107.32 24.4973 107.327 24.5077C107.332 24.5175 107.346 24.545 107.353 24.5983L111.32 24.0897C111.018 21.7326 108.867 20.0883 106.46 20.5949L107.285 24.5091ZM107.346 24.543C107.357 24.6476 107.363 24.754 107.371 24.9159C107.379 25.0696 107.388 25.2713 107.407 25.5021L111.394 25.1699C111.381 25.0167 111.374 24.8824 111.366 24.7161C111.358 24.558 111.348 24.3604 111.327 24.145L107.346 24.543ZM110.601 26.936C111.52 26.246 112.485 25.864 113.401 25.864V21.864C111.372 21.864 109.585 22.698 108.2 23.736L110.601 26.936ZM113.401 25.864C114.418 25.864 115.283 26.4172 115.882 27.5696L119.431 25.7264C118.302 23.5508 116.223 21.864 113.401 21.864V25.864ZM115.992 27.7574C115.945 27.6865 115.917 27.6258 115.948 27.6864C115.965 27.7218 116.041 27.8785 116.152 28.0454L119.481 25.8266C119.528 25.8975 119.556 25.9582 119.525 25.8976C119.508 25.8622 119.432 25.7055 119.321 25.5386L115.992 27.7574ZM119.231 28.3502C119.411 28.1701 119.571 27.9874 119.683 27.8602C119.811 27.7138 119.878 27.6392 119.935 27.5822L117.106 24.7538C116.939 24.9208 116.782 25.1022 116.678 25.2198C116.558 25.3565 116.478 25.4459 116.402 25.5218L119.231 28.3502ZM119.977 27.5387C121.072 26.3755 122.342 25.9393 123.862 26.1627L124.443 22.2053C121.611 21.7887 119.041 22.6965 117.064 24.7973L119.977 27.5387ZM123.842 26.1598C124.955 26.3345 125.569 26.93 125.997 27.9323C126.474 29.0526 126.634 30.5439 126.665 32.096L130.664 32.016C130.631 30.3681 130.471 28.2274 129.676 26.3637C128.832 24.382 127.222 22.6415 124.463 22.2082L123.842 26.1598Z" fill="#664122"/>
</svg>
