<?xml version="1.0" encoding="UTF-8"?>
<svg xmlns="http://www.w3.org/2000/svg" xmlns:xlink="http://www.w3.org/1999/xlink" viewBox="0 0 18.79 20.2305">
  <defs>
    <style>
      .cls-1, .cls-2, .cls-3, .cls-4, .cls-5, .cls-6, .cls-7, .cls-8, .cls-9 {
        mix-blend-mode: multiply;
      }

      .cls-1, .cls-10, .cls-5 {
        opacity: .4;
      }

      .cls-11 {
        fill: #3b2200;
      }

      .cls-12, .cls-13, .cls-14, .cls-15, .cls-8 {
        fill: #d9a879;
      }

      .cls-12, .cls-14 {
        mix-blend-mode: overlay;
      }

      .cls-12, .cls-4, .cls-9 {
        opacity: .3;
      }

      .cls-16, .cls-5, .cls-17, .cls-6 {
        fill: #be6915;
      }

      .cls-18, .cls-9 {
        fill: #af7723;
      }

      .cls-2 {
        fill: url(#linear-gradient);
      }

      .cls-2, .cls-14, .cls-15, .cls-17 {
        opacity: .5;
      }

      .cls-19 {
        fill: #e27d1d;
      }

      .cls-3, .cls-4, .cls-20 {
        fill: #845914;
      }

      .cls-21 {
        isolation: isolate;
      }

      .cls-22 {
        fill: #5f3e00;
      }

      .cls-23 {
        fill: #4a2300;
      }

      .cls-17 {
        mix-blend-mode: screen;
      }

      .cls-24 {
        fill: #744d0b;
      }

      .cls-25 {
        fill: #5e2e00;
      }

      .cls-26 {
        fill: #281000;
      }

      .cls-27 {
        fill: #452a00;
      }

      .cls-28 {
        fill: #512500;
      }

      .cls-29 {
        fill: #320e00;
      }

      .cls-30 {
        fill: #0b0000;
      }
    </style>
    <linearGradient id="linear-gradient" x1="9.33695" y1="26.37432" x2="9.33695" y2="17.60738" gradientUnits="userSpaceOnUse">
      <stop offset=".02809" stop-color="#7f4a1e"/>
      <stop offset=".25281" stop-color="#a9714b"/>
      <stop offset=".48466" stop-color="#dbb685"/>
      <stop offset=".61963" stop-color="#b68756"/>
      <stop offset=".82209" stop-color="#835134"/>
      <stop offset=".97753" stop-color="#7f4a1e"/>
    </linearGradient>
  </defs>
  <g class="cls-21">
    <g id="Layer_2" data-name="Layer 2">
      <g id="Layer_1-2" data-name="Layer 1">
        <g>
          <polygon class="cls-2" points="1.6055 17.0957 .2764 20.2305 18.3975 20.2305 17.4492 16.9981 1.6055 17.0957"/>
          <g>
            <g>
              <g>
                <polygon class="cls-22" points="3.2842 19.5176 1.9795 19.5176 1.7939 17.2207 3.499 17.2207 3.2842 19.5176"/>
                <path class="cls-23" d="M3.2842,19.5674H1.9795c-.0254,0-.0469-.0205-.04878-.0459l-.18662-2.2969c-.0009-.0136,.003-.0273,.0137-.038,.0088-.0108,.0225-.0166,.0361-.0166h1.7051c.01372,0,.0274,.0058,.0371,.0166,.0098,.0107,.0137,.0244,.0127,.038l-.2138,2.2969c-.002,.0264-.0245,.0459-.0508,.0459Zm-1.2578-.1006h1.2129l.205-2.1953H1.8486l.1778,2.1953Z"/>
              </g>
              <g>
                <rect class="cls-11" x="1.9639" y="16" width="1.3379" height=".4541"/>
                <path class="cls-23" d="M3.3018,16.5039H1.9639c-.0284,0-.0508-.0214-.0508-.0498v-.4541c0-.0273,.0224-.0508,.0508-.0508h1.3379c.0273,0,.0507,.0235,.0507,.0508v.4541c0,.0284-.0234,.0498-.0507,.0498Zm-1.28808-.0996h1.23828v-.3535h-1.23828v.3535Z"/>
              </g>
              <g>
                <rect class="cls-22" x="1.2666" y="14.5664" width="2.7305" height="1.5684"/>
                <path class="cls-23" d="M3.9971,16.1856H1.2666c-.0273,0-.0498-.0235-.0498-.0508v-1.5684c0-.0273,.0225-.0507,.0498-.0507H3.9971c.0283,0,.0507,.0234,.0507,.0507v1.5684c0,.0273-.0224,.0508-.0507,.0508Zm-2.6797-.1016H3.9473v-1.4668H1.3174v1.4668Z"/>
              </g>
              <g>
                <rect class="cls-20" x="1.6475" y="16.3584" width="1.9707" height="1.1319"/>
                <path class="cls-23" d="M3.6182,17.5401H1.6475c-.0274,0-.05078-.0225-.05078-.0498v-1.1319c0-.0283,.02338-.0498,.05078-.0498h1.9707c.0273,0,.0507,.0215,.0507,.0498v1.1319c0,.0273-.0234,.0498-.0507,.0498Zm-1.92-.1006h1.8692v-1.0313H1.6982v1.0313Z"/>
              </g>
              <g class="cls-10">
                <rect class="cls-3" x="3.3994" y="14.5664" width=".5977" height="1.5684"/>
                <polygon class="cls-3" points="2.7051 16.1348 2.7051 16.3584 3.0205 16.3584 3.0205 17.4903 2.876 17.4903 2.6885 19.5176 3.2842 19.5176 3.4736 17.4903 3.6182 17.4903 3.6182 16.3584 3.3018 16.3584 3.3018 16.1348 2.7051 16.1348"/>
              </g>
              <polygon class="cls-15" points="2.1611 19.377 1.9658 17.5977 2.1611 17.5977 2.1611 19.377"/>
              <path class="cls-15" d="M1.417,15.4395c0-.0332,0,.5176,0,.5176h.3769s-.3769-.0528-.3769-.5176Z"/>
              <path class="cls-15" d="M1.7939,16.5186l.0215,.7881h.4532s-.3555,.0215-.4747-.7881Z"/>
            </g>
            <g>
              <g>
                <polygon class="cls-22" points="16.8096 19.5176 15.5049 19.5176 15.3193 17.2207 17.0244 17.2207 16.8096 19.5176"/>
                <path class="cls-23" d="M16.8096,19.5674h-1.3047c-.0254,0-.0469-.0205-.0488-.0459l-.1856-2.2969c-.0019-.0136,.0039-.0273,.0127-.038,.0088-.0108,.02252-.0166,.0361-.0166h1.7051c.0137,0,.0274,.0058,.0371,.0166,.0098,.0107,.0137,.0244,.0127,.038l-.2139,2.2969c-.0019,.0264-.0244,.0459-.0507,.0459Zm-1.2578-.1006h1.2128l.20512-2.1953h-1.59572l.1778,2.1953Z"/>
              </g>
              <g>
                <rect class="cls-11" x="15.4893" y="16" width="1.3378" height=".4541"/>
                <path class="cls-23" d="M16.8271,16.5039h-1.3378c-.0293,0-.0508-.0214-.0508-.0498v-.4541c0-.0273,.0215-.0508,.0508-.0508h1.3378c.0274,0,.0508,.0235,.0508,.0508v.4541c0,.0284-.0234,.0498-.0508,.0498Zm-1.289-.0996h1.2383v-.3535h-1.2383v.3535Z"/>
              </g>
              <g>
                <rect class="cls-22" x="14.792" y="14.5664" width="2.7305" height="1.5684"/>
                <path class="cls-23" d="M17.5225,16.1856h-2.7305c-.0274,0-.0498-.0235-.0498-.0508v-1.5684c0-.0273,.0224-.0507,.0498-.0507h2.7305c.0283,0,.0507,.0234,.0507,.0507v1.5684c0,.0273-.0224,.0508-.0507,.0508Zm-2.6797-.1016h2.62992v-1.4668h-2.62992v1.4668Z"/>
              </g>
              <g>
                <rect class="cls-20" x="15.1728" y="16.3584" width="1.9708" height="1.1319"/>
                <path class="cls-23" d="M17.1436,17.5401h-1.9708c-.0283,0-.0507-.0225-.0507-.0498v-1.1319c0-.0283,.0224-.0498,.0507-.0498h1.9708c.0273,0,.0507,.0215,.0507,.0498v1.1319c0,.0273-.0234,.0498-.0507,.0498Zm-1.92088-.1006h1.87008v-1.0313h-1.87008v1.0313Z"/>
              </g>
              <g class="cls-10">
                <rect class="cls-3" x="16.9268" y="14.5664" width=".5957" height="1.5684"/>
                <polygon class="cls-3" points="16.2295 16.1348 16.2295 16.3584 16.5469 16.3584 16.5469 17.4903 16.4023 17.4903 16.2129 19.5176 16.8096 19.5176 16.999 17.4903 17.1436 17.4903 17.1436 16.3584 16.8271 16.3584 16.8271 16.1348 16.2295 16.1348"/>
              </g>
              <polygon class="cls-15" points="15.6865 19.377 15.4912 17.5977 15.6865 17.5977 15.6865 19.377"/>
              <path class="cls-15" d="M14.9424,15.4395c0-.0332,0,.5176,0,.5176h.3769s-.3769-.0528-.3769-.5176Z"/>
              <path class="cls-15" d="M15.3193,16.5186l.0215,.7881h.4531s-.3554,.0215-.4746-.7881Z"/>
            </g>
            <g>
              <g>
                <polygon class="cls-20" points="17.5439 18.8496 1.2471 18.8496 .9268 1.9141 17.8623 1.9141 17.5439 18.8496"/>
                <path class="cls-23" d="M17.5439,18.9004H1.2471c-.02738,0-.0498-.0215-.0508-.0488L.8779,1.9151c0-.0137,.0039-.0264,.0137-.0362,.0098-.0097,.0225-.0156,.03612-.0156H17.8623c.0137,0,.0273,.0059,.0361,.0156,.0098,.0098,.0147,.0225,.0147,.0362l-.31938,16.9365c-.00092,.0273-.02242,.0488-.04982,.0488Zm-16.248-.1006H17.4941l.3174-16.8349H.9795l.3164,16.8349Z"/>
              </g>
              <path class="cls-4" d="M10.4531,1.9141c.0127,.0019,.0244,.0039,.0381,.0059,.919,.1357,1.8281,.2851,2.7588,.3007,.7451,.0118,1.4912,.0215,2.2002,.2784,.9551,.3457,.9033,1.5908,.831,2.4091-.1396,1.5957-.0771,3.1993-.0986,4.8008-.0156,1.2539-.0635,2.5059-.1074,3.7588-.0332,.9561-.06148,1.9854-.457,2.877-.73048,1.6435-2.5899,2.0878-4.2334,2.1923-1.95708,.125-3.91608-.1171-5.875-.0625-.7217,.0196-1.4424,.0508-2.16308,.044-.44532-.0049-.91122,.001-1.34472-.1172-.3194-.0859-.5752-.2314-.7706-.4287l.0157,.8769H17.5439l.3184-16.9355h-7.4092Z"/>
              <g>
                <g>
                  <g>
                    <polygon class="cls-22" points="9.3955 13.9444 3.1103 10.7725 2.6328 10.3496 2.6328 17.5391 3.1103 17.1162 9.3955 13.9444"/>
                    <path class="cls-29" d="M2.6328,17.5889c-.0068,0-.0137-.001-.0205-.0049-.01758-.0078-.0293-.0254-.0293-.0449v-7.1895c0-.0195,.01172-.0371,.0293-.0449,.0176-.0088,.0391-.0058,.0537,.0078l.4736,.418,6.2784,3.1689c.0166,.0088,.0283,.0264,.0283,.045,0,.0185-.0117,.0361-.0283,.0449l-6.2784,3.1689-.4736,.418c-.0088,.0078-.0215,.0127-.0332,.0127Zm.0498-7.1279v6.9658l.3955-.3486c.003-.002,.0069-.0049,.0108-.0069l6.1953-3.1269-6.1953-3.128c-.0039-.0009-.0078-.0039-.0108-.0058l-.3955-.3496Z"/>
                  </g>
                  <g>
                    <polygon class="cls-24" points="9.3955 13.9444 15.67972 10.7725 16.1592 10.3496 2.6328 10.3496 3.1103 10.7725 9.3955 13.9444"/>
                    <path class="cls-29" d="M9.3955,13.9942c-.00778,0-.0156-.002-.0234-.0049l-6.2832-3.1729c-.0039-.0009-.0078-.0039-.0108-.0058l-.4785-.4229c-.0156-.0136-.0205-.0361-.0137-.0556,.0069-.0196,.0264-.0323,.0469-.0323h13.5264c.01952,0,.039,.0127,.0469,.0323,.0068,.0195,.0019,.042-.0137,.0556l-.4805,.4229c-.0019,.0019-.0058,.0049-.0098,.0058l-6.2841,3.1729c-.0069,.0029-.0147,.0049-.0225,.0049Zm-6.2559-3.2637l6.2559,3.1582,6.2559-3.1582,.375-.3301H2.7656l.374,.3301Z"/>
                  </g>
                  <g>
                    <polygon class="cls-26" points="9.3955 13.9444 3.1103 17.1162 2.6328 17.5391 16.1592 17.5391 15.67972 17.1162 9.3955 13.9444"/>
                    <path class="cls-29" d="M16.1592,17.5889H2.6328c-.0205,0-.04-.0127-.0469-.0322-.0068-.0196-.0019-.042,.0137-.0557l.4785-.4228c.003-.002,.0069-.0049,.0108-.0069l6.2832-3.1719c.01562-.0068,.0312-.0068,.0459,0l6.2841,3.1719c.004,.002,.0079,.0049,.0098,.0069l.4805,.4228c.0156,.0137,.0205,.0361,.0137,.0557-.0079,.0195-.02738,.0322-.0469,.0322Zm-13.3936-.1006h13.2608l-.375-.3301-6.2559-3.1582-6.2559,3.1582-.374,.3301Z"/>
                  </g>
                  <g>
                    <polygon class="cls-27" points="15.67972 10.7725 9.3955 13.9444 15.67972 17.1162 16.1592 17.5391 16.1592 10.3496 15.67972 10.7725"/>
                    <path class="cls-29" d="M16.1592,17.5889c-.0137,0-.0244-.0049-.0332-.0127l-.4746-.418-6.2793-3.1689c-.0157-.0088-.02738-.0264-.02738-.0449,0-.0186,.01168-.0362,.02738-.045l6.2793-3.1689,.4746-.418c.0136-.0136,.0351-.0166,.05272-.0078,.01758,.0078,.03028,.0254,.03028,.0449v7.1895c0,.0195-.0127,.0371-.03028,.0449-.00592,.0039-.01372,.0049-.01952,.0049Zm-6.6524-3.6445l6.1953,3.1269c.004,.002,.0079,.0049,.0098,.0069l.3965,.3496v-6.9668l-.3965,.3496c-.0019,.0019-.0058,.0049-.0098,.0058l-6.1953,3.128Zm6.17292-3.1719h0Z"/>
                  </g>
                </g>
                <g>
                  <g>
                    <g>
                      <rect class="cls-19" x="3.1103" y="10.7725" width="12.56942" height="6.3437"/>
                      <path class="cls-23" d="M15.67972,17.166H3.1103c-.0263,0-.0488-.0214-.0488-.0498v-6.3437c0-.0283,.0225-.0498,.0488-.0498H15.67972c.02828,0,.04978,.0215,.04978,.0498v6.3437c0,.0284-.0215,.0498-.04978,.0498Zm-12.51862-.0996H15.6299v-6.2441H3.1611v6.2441Z"/>
                    </g>
                    <g class="cls-7">
                      <polygon class="cls-25" points="3.4482 16.8711 3.1103 17.1162 15.67972 17.1162 15.67972 10.7725 15.3389 11.0186 3.4482 16.8711"/>
                    </g>
                  </g>
                  <g>
                    <rect class="cls-13" x="3.4502" y="11.0186" width="11.8906" height="5.8525"/>
                    <path class="cls-23" d="M15.3408,16.9219H3.4502c-.0274,0-.0508-.0234-.0508-.0508v-5.8525c0-.0283,.0234-.0508,.0508-.0508H15.3408c.0274,0,.0508,.0225,.0508,.0508v5.8525c0,.0274-.0234,.0508-.0508,.0508Zm-11.8408-.1016H15.29v-5.7519H3.5v5.7519Z"/>
                  </g>
                  <g class="cls-1">
                    <path class="cls-13" d="M4.3799,16.2686c-.2559,.1767-.5899,.292-.9297,.3467v.1054c.1562-.039,.3144-.084,.4726-.1308,.3653-.1074,.7178-.2207,1.1016-.2451,.6934-.044,1.6748,.0927,2.2461-.3946-.4082-.247-.9756-.2265-1.4316-.2109-.3907,.0127-.7793,.0312-1.1709,.04-.3741,.0078-.8057,.0391-1.2178-.0009v.2607c.3008,.0644,.6152,.0732,.9228,.0752,.0831,0,.0479,.126,.0069,.1543Z"/>
                    <path class="cls-13" d="M9.7734,16.2344c-.6709,.0898-1.3369,.2344-2.0048,.3496-.67388,.1182-1.3428,.211-2.0127,.2871h3.499c.832-.2344,1.6504-.5293,2.4961-.7265,.46972-.1094,1.0195-.1993,1.4375-.4512,.3711-.2246-.1319-.3818-.3496-.418-.2373-.0371-.4766-.0586-.7149-.0722-.7597-.0411-1.5156-.1661-2.2754-.2276-.9375-.0791-1.87788-.0928-2.8183-.1553-.93458-.0615-1.8633-.1757-2.7969-.2558-.2598-.0215-.5225-.0313-.7832-.0547v.4316c.2226,.002,.4453,.002,.6562,.0215,.9434,.084,1.8907,.1582,2.836,.2276,.832,.0615,1.664,.1005,2.498,.1425,.543,.0274,1.1328,.0704,1.5655,.4356,.0234,.0205,.0127,.0635-.0069,.083-.32028,.2969-.8144,.3262-1.2256,.3828Z"/>
                    <path class="cls-13" d="M4.8252,11.3926c.7559-.1621,1.5019-.2725,2.2666-.3642,.0303-.003,.0586-.0069,.08892-.0098H3.4502v.6455c.4883-.041,1.001-.1914,1.375-.2715Z"/>
                    <path class="cls-13" d="M8.0049,11.0186c-.5449,.0713-1.0889,.1474-1.6279,.2197-.8545,.1133-1.6846,.3613-2.5391,.4746-.124,.0156-.2559,.0332-.3877,.0459v.2285c1.9531-.1103,3.89452-.3857,5.8437-.5595,1.1875-.1065,2.3789-.0801,3.5664-.1739,.8262-.0644,1.65242-.1787,2.4805-.206v-.0293h-7.3359Z"/>
                    <path class="cls-13" d="M12.6846,11.3985c-1.1914,.0722-2.3828,.0703-3.5723,.1797-1.8887,.1718-3.7695,.4335-5.6621,.5429v.5645c.5762-.0215,1.1953-.1817,1.6426-.2432,1.2158-.167,2.4531,.0693,3.6738-.0361,2.1992-.1875,4.377-.5703,6.5742-.7529v-.4698c-.8867,.0303-1.7676,.1631-2.6562,.2149Z"/>
                    <path class="cls-13" d="M12.0342,12.9698c.2549,.0029,.5097,.0048,.7617,.0048,.5029-.0039,1.0039-.0136,1.5049-.0117,.3467,0,.6924,.0098,1.04,.0166v-.7929c-1.3955,.0996-2.8066,.2187-4.1074,.7314,.248,.0723,.5615,.0488,.8008,.0518Z"/>
                    <path class="cls-13" d="M13.9971,13.0918c-.6055,.0039-1.211,.0176-1.81638,.0088-.376-.0058-.834,.0518-1.17582-.1299-.0508-.0254-.0469-.0879,.0049-.1093,1.3662-.5743,2.8574-.6973,4.331-.8028v-.2773c-.86908,.0693-1.7363,.1679-2.6006,.2793-1.5049,.1924-3.039,.4863-4.5576,.5019-.7617,.0088-1.5195-.0488-2.2812-.0439-.4619,.0029-.9043,.0713-1.3614,.1396-.32028,.0489-.707,.1192-1.0898,.1348v.3428c.7012,.0732,1.4004,.1533,2.10552,.1806,1.30558,.0489,2.60928,.0762,3.913,.1895,1.30568,.1142,2.585,.2187,3.89558,.1055,.5449-.045,1.0888-.1055,1.6289-.1827,.1152-.0166,.2314-.0332,.3476-.0537v-.2656c-.4472-.0098-.8965-.0205-1.3437-.0176Z"/>
                    <path class="cls-13" d="M13.84672,13.7285c-1.36432,.1387-2.68652,.0879-4.04792-.0351-1.3564-.1231-2.7099-.1611-4.0713-.2119-.7617-.0283-1.5195-.1153-2.2773-.1924v.7539c.291-.0186,.582-.0557,.873-.082,.6289-.0586,1.2579-.0371,1.8877,.0136,1.3555,.1075,2.6983,.2803,4.0606,.2774,1.2978-.002,2.5967-.086,3.8935-.0576,.3653,.0088,.7696,.04,1.1758,.0439v-.6738c-.5039,.0976-1.04,.1181-1.49408,.164Z"/>
                    <path class="cls-13" d="M13.4053,15.7403c-.3614,.3017-.93558,.3964-1.3789,.5019-.7256,.1758-1.4375,.4141-2.1534,.6289h2.419c.3516-.1894,.7519-.2959,1.1328-.4326,.3594-.1299,.9551-.3096,.6621-.7832-.1133-.1826-.206-.376-.3183-.5576-.17388-.2793,.5742-.3779,.6953-.3877,.2939-.0244,.5859-.042,.8769-.0537v-.2676c-.32808-.0039-.6553-.0234-.959-.0312-1.3105-.0352-2.62108,.0507-3.9306,.0527-1.4688,.0019-2.9092-.1924-4.3721-.2891-.6738-.0439-1.3291-.0449-2,.0254-.21,.0225-.4199,.043-.6289,.0567v.1552c.1426,.0108,.2842,.0205,.4258,.0283,.4765,.0293,.9511,.0948,1.42772,.1407,1.03908,.0996,2.07618,.1543,3.11908,.2011,1.0948,.0508,2.1856,.1573,3.2735,.2872,.4726,.0566,.9892,.0136,1.44142,.1835,.207,.0782,.52928,.3204,.26758,.5411Z"/>
                    <path class="cls-13" d="M15.1836,16.0088c.0312-.2129,.0752-.3906,.1572-.5342v-.6621c-.2949,.0108-.5908,.0293-.8847,.0596-.02538,.0029-.5997,.1094-.5723,.1455,.0517,.0723,.0781,.1397,.1191,.2188,.1016,.1914,.2422,.3681,.3155,.5742,.1211,.3398-.3174,.5674-.5635,.6679-.3545,.1475-.7481,.2442-1.1123,.3926h1.8584c.34672-.1738,.6191-.4297,.6826-.8623Z"/>
                    <path class="cls-13" d="M15.0186,16.6856c-.0772,.0703-.1592,.1299-.2442,.1855h.5664v-.9804c-.0586,.2734-.0849,.5781-.3222,.7949Z"/>
                    <path class="cls-13" d="M8.0684,16.3985c.6669-.1182,1.3339-.2285,2.0029-.3379,.125-.0215,.957-.1758,.5781-.3535-.2871-.1348-.5976-.1944-.9111-.2178-1.4658-.1162-2.9365-.1777-4.4033-.2901-.6289-.0478-1.2559-.0878-1.8848-.121v.5566c.2266,.0186,.4551,.0166,.6582,.0146,.3926-.0029,.7871-.0058,1.1797-.0263,.668-.0332,1.5664-.1582,2.1387,.2715,.0361,.0293,.0615,.0742,.0234,.1113-.5664,.5625-1.5527,.4248-2.2783,.4707-.5459,.0342-1.041,.2187-1.5664,.3574-.05178,.0137-.1035,.0244-.1553,.0371h1.1143c.4228-.0263,.8437-.0586,1.2646-.1054,.7539-.084,1.4922-.2344,2.2393-.3672Z"/>
                    <path class="cls-13" d="M3.4502,16.2032v.248c.2139-.0342,.4277-.0967,.6172-.1826-.208-.0069-.416-.0244-.6172-.0654Z"/>
                  </g>
                  <g>
                    <path class="cls-16" d="M10.249,12.3321c0,.5293-.3818,.958-.8535,.958-.4707,0-.8535-.4287-.8535-.958s.3828-.9571,.8535-.9571c.4717,0,.8535,.4278,.8535,.9571Z"/>
                    <path class="cls-23" d="M9.3955,13.3399c-.498,0-.9043-.4512-.9043-1.0078,0-.5547,.4063-1.0079,.9043-1.0079,.4981,0,.9033,.4532,.9033,1.0079,0,.5566-.4052,1.0078-.9033,1.0078Zm0-1.9141c-.4434,0-.8027,.4063-.8027,.9063s.3593,.9082,.8027,.9082,.8027-.4082,.8027-.9082-.3593-.9063-.8027-.9063Z"/>
                  </g>
                  <g>
                    <path class="cls-28" d="M10.4619,12.7715c0,.5889-.4775,1.0664-1.0664,1.0664-.5879,0-1.0664-.4775-1.0664-1.0664,0-.5879,.4785-1.0654,1.0664-1.0654,.5889,0,1.0664,.4775,1.0664,1.0654Z"/>
                    <path class="cls-30" d="M9.3955,13.8877c-.6152,0-1.1162-.501-1.1162-1.1162s.501-1.1152,1.1162-1.1152,1.11622,.5,1.11622,1.1152-.501,1.1162-1.11622,1.1162Zm0-2.1318c-.5596,0-1.0156,.4551-1.0156,1.0156,0,.5606,.456,1.0156,1.0156,1.0156,.5606,0,1.0156-.455,1.0156-1.0156,0-.5605-.455-1.0156-1.0156-1.0156Z"/>
                  </g>
                  <g>
                    <path class="cls-16" d="M10.4619,12.9932c0,.5635-.4775,1.0215-1.0664,1.0215-.5879,0-1.0664-.458-1.0664-1.0215,0-.5654,.4785-1.0225,1.0664-1.0225,.5889,0,1.0664,.4571,1.0664,1.0225Z"/>
                    <path class="cls-23" d="M9.3955,14.0645c-.6152,0-1.1162-.4805-1.1162-1.0713s.501-1.0732,1.1162-1.0732,1.11622,.4824,1.11622,1.0732-.501,1.0713-1.11622,1.0713Zm0-2.043c-.5596,0-1.0156,.4356-1.0156,.9717s.456,.9717,1.0156,.9717c.5606,0,1.0156-.4356,1.0156-.9717s-.455-.9717-1.0156-.9717Z"/>
                  </g>
                  <path class="cls-6" d="M9.3955,11.9707c-.5879,0-1.0664,.4571-1.0664,1.0225,0,.5635,.4785,1.0215,1.0664,1.0215,.5889,0,1.0664-.458,1.0664-1.0215,0-.5654-.4775-1.0225-1.0664-1.0225Zm-.1045,1.7403c-.4131,0-.749-.3223-.749-.7178,0-.3965,.3359-.7178,.749-.7178s.7481,.3213,.7481,.7178c0,.3955-.335,.7178-.7481,.7178Z"/>
                  <path class="cls-17" d="M9.3955,12.7061c0,.1553-.126,.2803-.2812,.2803-.1543,0-.2813-.125-.2813-.2803s.127-.2822,.2813-.2822c.1552,0,.2812,.1269,.2812,.2822Z"/>
                  <path class="cls-17" d="M8.8818,13.0391c0,.0527-.042,.0957-.0947,.0957s-.0947-.043-.0947-.0957c0-.0518,.042-.0938,.0947-.0938s.0947,.042,.0947,.0938Z"/>
                  <path class="cls-8" d="M13.458,11.0186s1.1445,.039,1.3164,.6455c.1738,.6045,0,3.8164,0,3.8164,0,0,.0645,1.0039-1.6953,1.0752H4.4072s-.957,.0469-.957-1.0752v1.3906H15.3408v-5.8525h-1.8828Z"/>
                  <path class="cls-14" d="M3.7588,15.4805v-4.2969h5.0742s-4.57028-.1513-4.7656,.751c-.1934,.9033-.3086,3.5459-.3086,3.5459Z"/>
                </g>
              </g>
              <g>
                <g>
                  <g>
                    <polygon class="cls-22" points="9.3955 6.4287 3.1103 3.2559 2.6328 2.835 2.6328 10.0235 3.1103 9.6016 9.3955 6.4287"/>
                    <path class="cls-29" d="M2.6328,10.0742c-.0068,0-.0137-.0019-.0205-.0039-.01758-.0087-.0293-.0263-.0293-.0468V2.835c0-.0195,.01172-.0381,.0293-.0459,.0176-.0078,.0391-.0049,.0537,.0078l.4736,.418,6.2784,3.1699c.0166,.0078,.0283,.0254,.0283,.0439,0,.0186-.0117,.0362-.0283,.0459l-6.2784,3.169-.4736,.418c-.0088,.0087-.0215,.0126-.0332,.0126Zm.0498-7.1279v6.9658l.3955-.3476c.003-.0029,.0069-.0059,.0108-.0078l6.1953-3.128L3.0889,3.3008c-.0039-.0019-.0078-.0039-.0108-.0058l-.3955-.3487Z"/>
                  </g>
                  <g>
                    <polygon class="cls-24" points="9.3955 6.4287 15.67972 3.2559 16.1592 2.835 2.6328 2.835 3.1103 3.2559 9.3955 6.4287"/>
                    <path class="cls-29" d="M9.3955,6.4795c-.00778,0-.0156-.0019-.0234-.0049L3.0889,3.3008c-.0039-.0019-.0078-.0039-.0108-.0058l-.4785-.4219c-.0156-.0137-.0205-.0362-.0137-.0557,.0069-.0195,.0264-.0322,.0469-.0322h13.5264c.01952,0,.039,.0127,.0469,.0322,.0068,.0195,.0019,.042-.0137,.0557l-.4805,.4219c-.0019,.0019-.0058,.0039-.0098,.0058l-6.2841,3.1738c-.0069,.003-.0147,.0049-.0225,.0049ZM3.1396,3.2149l6.2559,3.1582,6.2559-3.1582,.375-.3291H2.7656l.374,.3291Z"/>
                  </g>
                  <g>
                    <polygon class="cls-26" points="9.3955 6.4287 3.1103 9.6016 2.6328 10.0235 16.1592 10.0235 15.67972 9.6016 9.3955 6.4287"/>
                    <path class="cls-29" d="M16.1592,10.0742H2.6328c-.0205,0-.04-.0126-.0469-.0322-.0068-.0195-.0019-.042,.0137-.0556l.4785-.4219c.003-.0029,.0069-.0059,.0108-.0078l6.2832-3.1719c.01562-.0078,.0312-.0078,.0459,0l6.2841,3.1719c.004,.0019,.0079,.0049,.0098,.0078l.4805,.4219c.0156,.0136,.0205,.0361,.0137,.0556-.0079,.0196-.02738,.0322-.0469,.0322Zm-13.3936-.1005h13.2608l-.375-.3301-6.2559-3.1582-6.2559,3.1582-.374,.3301Z"/>
                  </g>
                  <g>
                    <polygon class="cls-27" points="15.67972 3.2559 9.3955 6.4287 15.67972 9.6016 16.1592 10.0235 16.1592 2.835 15.67972 3.2559"/>
                    <path class="cls-29" d="M16.1592,10.0742c-.0137,0-.0244-.0039-.0332-.0126l-.4746-.418-6.2793-3.169c-.0157-.0097-.02738-.0273-.02738-.0459,0-.0185,.01168-.0361,.02738-.0439l6.2793-3.1699,.4746-.418c.0136-.0127,.0351-.0156,.05272-.0078,.01758,.0078,.03028,.0264,.03028,.0459v7.1885c0,.0205-.0127,.0381-.03028,.0468-.00592,.002-.01372,.0039-.01952,.0039Zm-6.6524-3.6455l6.1953,3.128c.004,.0019,.0079,.0049,.0098,.0078l.3965,.3476V2.9463l-.3965,.3487c-.0019,.0019-.0058,.0039-.0098,.0058l-6.1953,3.1279Zm6.17292-3.1718h0Z"/>
                  </g>
                </g>
                <g>
                  <g>
                    <g>
                      <rect class="cls-19" x="3.1103" y="3.2559" width="12.56942" height="6.3457"/>
                      <path class="cls-23" d="M15.67972,9.6524H3.1103c-.0263,0-.0488-.0235-.0488-.0508V3.2569c0-.0284,.0225-.0498,.0488-.0498H15.67972c.02828,0,.04978,.0214,.04978,.0498v6.3447c0,.0273-.0215,.0508-.04978,.0508Zm-12.51862-.1016H15.6299V3.3067H3.1611v6.2441Z"/>
                    </g>
                    <g class="cls-7">
                      <polygon class="cls-25" points="3.4482 9.3565 3.1103 9.6016 15.67972 9.6016 15.67972 3.2559 15.3389 3.502 3.4482 9.3565"/>
                    </g>
                  </g>
                  <g>
                    <rect class="cls-13" x="3.4502" y="3.502" width="11.8906" height="5.8545"/>
                    <path class="cls-23" d="M15.3408,9.4063H3.4502c-.0274,0-.0508-.0215-.0508-.0498V3.502c0-.0274,.0234-.0498,.0508-.0498H15.3408c.0274,0,.0508,.0224,.0508,.0498v5.8545c0,.0283-.0234,.0498-.0508,.0498Zm-11.8408-.0996H15.29V3.5528H3.5v5.7539Z"/>
                  </g>
                  <g class="cls-1">
                    <path class="cls-13" d="M4.3799,8.7539c-.2559,.1758-.5899,.293-.9297,.3457v.1055c.1562-.0391,.3144-.082,.4726-.1299,.3653-.1084,.7178-.2207,1.1016-.2451,.6934-.0439,1.6748,.0938,2.2461-.3935-.4082-.2471-.9756-.2276-1.4316-.211-.3907,.0127-.7793,.0303-1.1709,.0401-.3741,.0078-.8057,.039-1.2178-.002v.2607c.3008,.0645,.6152,.0733,.9228,.0752,.0831,0,.0479,.127,.0069,.1543Z"/>
                    <path class="cls-13" d="M9.7734,8.7198c-.6709,.0898-1.3369,.2334-2.0048,.3496-.67388,.1181-1.3428,.2119-2.0127,.2871h3.499c.832-.2334,1.6504-.5303,2.4961-.7276,.46972-.1084,1.0195-.1972,1.4375-.4502,.3711-.2236-.1319-.3818-.3496-.4179-.2373-.0381-.4766-.0586-.7149-.0723-.7597-.042-1.5156-.165-2.2754-.2285-.9375-.0772-1.87788-.0928-2.8183-.1543-.93458-.0615-1.8633-.1768-2.7969-.2549-.2598-.0234-.5225-.0332-.7832-.0547v.4297c.2226,.0039,.4453,.0039,.6562,.0215,.9434,.084,1.8907,.1582,2.836,.2285,.832,.0625,1.664,.1006,2.498,.1426,.543,.0273,1.1328,.0703,1.5655,.4355,.0234,.0205,.0127,.0635-.0069,.0821-.32028,.2968-.8144,.3281-1.2256,.3838Z"/>
                    <path class="cls-13" d="M4.8252,3.877c.7559-.1621,1.5019-.2735,2.2666-.3633,.0303-.0039,.0586-.0078,.08892-.0117H3.4502v.6465c.4883-.041,1.001-.1914,1.375-.2715Z"/>
                    <path class="cls-13" d="M8.0049,3.502c-.5449,.0722-1.0889,.1494-1.6279,.2207-.8545,.1133-1.6846,.3623-2.5391,.4746-.124,.0176-.2559,.0342-.3877,.0459v.2295c1.9531-.1113,3.89452-.3867,5.8437-.5606,1.1875-.1054,2.3789-.082,3.5664-.1738,.8262-.0644,1.65242-.1777,2.4805-.2051v-.0312h-7.3359Z"/>
                    <path class="cls-13" d="M12.6846,3.8848c-1.1914,.0703-2.3828,.0693-3.5723,.1777-1.8887,.1729-3.7695,.4356-5.6621,.545v.5625c.5762-.0206,1.1953-.1817,1.6426-.2442,1.2158-.166,2.4531,.0703,3.6738-.0332,2.1992-.1894,4.377-.5723,6.5742-.7539v-.4707c-.8867,.0303-1.7676,.1621-2.6562,.2168Z"/>
                    <path class="cls-13" d="M12.0342,5.4551c.2549,.0039,.5097,.0049,.7617,.0039,.5029-.0039,1.0039-.0137,1.5049-.0117,.3467,.001,.6924,.0098,1.04,.0156v-.791c-1.3955,.0996-2.8066,.2188-4.1074,.7315,.248,.0712,.5615,.0478,.8008,.0517Z"/>
                    <path class="cls-13" d="M13.9971,5.5762c-.6055,.0049-1.211,.0176-1.81638,.0098-.376-.0059-.834,.0507-1.17582-.1299-.0508-.0264-.0469-.0889,.0049-.1104,1.3662-.5742,2.8574-.6972,4.331-.8027v-.2773c-.86908,.0683-1.7363,.1689-2.6006,.2793-1.5049,.1933-3.039,.4863-4.5576,.5019-.7617,.0088-1.5195-.0488-2.2812-.0439-.4619,.0029-.9043,.0722-1.3614,.1416-.32028,.0468-.707,.1171-1.0898,.1338v.3427c.7012,.0723,1.4004,.1533,2.10552,.1797,1.30558,.0488,2.60928,.0762,3.913,.1895,1.30568,.1152,2.585,.2207,3.89558,.1074,.5449-.0469,1.0888-.1074,1.6289-.1836,.1152-.0166,.2314-.0332,.3476-.0547v-.2656c-.4472-.0098-.8965-.0205-1.3437-.0176Z"/>
                    <path class="cls-13" d="M13.84672,6.2129c-1.36432,.1387-2.68652,.0889-4.04792-.0342-1.3564-.124-2.7099-.1621-4.0713-.2119-.7617-.0293-1.5195-.1162-2.2773-.1933v.7558c.291-.0195,.582-.0566,.873-.084,.6289-.0586,1.2579-.0351,1.8877,.0147,1.3555,.1064,2.6983,.2803,4.0606,.2773,1.2978-.0029,2.5967-.0869,3.8935-.0576,.3653,.0088,.7696,.0391,1.1758,.044v-.6748c-.5039,.0976-1.04,.1191-1.49408,.164Z"/>
                    <path class="cls-13" d="M13.4053,8.2256c-.3614,.3018-.93558,.3965-1.3789,.5029-.7256,.1739-1.4375,.4131-2.1534,.628h2.419c.3516-.1905,.7519-.2959,1.1328-.4326,.3594-.1289,.9551-.3096,.6621-.7832-.1133-.1817-.206-.376-.3183-.5567-.17388-.2803,.5742-.3789,.6953-.3887,.2939-.0234,.5859-.0419,.8769-.0527v-.2695c-.32808-.002-.6553-.0215-.959-.0303-1.3105-.0361-2.62108,.0498-3.9306,.0527-1.4688,.003-2.9092-.1923-4.3721-.288-.6738-.045-1.3291-.0469-2,.0253-.21,.0215-.4199,.043-.6289,.0557v.1553c.1426,.0117,.2842,.0195,.4258,.0293,.4765,.0293,.9511,.0937,1.42772,.1386,1.03908,.1006,2.07618,.1563,3.11908,.2032,1.0948,.0498,2.1856,.1562,3.2735,.2861,.4726,.0566,.9892,.0147,1.44142,.1846,.207,.0761,.52928,.3193,.26758,.54Z"/>
                    <path class="cls-13" d="M15.1836,8.4942c.0312-.2129,.0752-.3907,.1572-.5352v-.6611c-.2949,.0107-.5908,.0293-.8847,.0596-.02538,.0019-.5997,.1093-.5723,.1464,.0517,.0703,.0781,.1387,.1191,.2168,.1016,.1914,.2422,.3702,.3155,.5743,.1211,.3408-.3174,.5683-.5635,.6699-.3545,.1465-.7481,.2431-1.1123,.3916h1.8584c.34672-.1729,.6191-.4287,.6826-.8623Z"/>
                    <path class="cls-13" d="M15.0186,9.1709c-.0772,.0703-.1592,.1299-.2442,.1856h.5664v-.9795c-.0586,.2734-.0849,.5762-.3222,.7939Z"/>
                    <path class="cls-13" d="M8.0684,8.8848c.6669-.1191,1.3339-.2305,2.0029-.3398,.125-.0196,.957-.1749,.5781-.3536-.2871-.1347-.5976-.1933-.9111-.2187-1.4658-.1152-2.9365-.1758-4.4033-.2871-.6289-.0489-1.2559-.0899-1.8848-.1211v.5556c.2266,.0186,.4551,.0166,.6582,.0147,.3926-.002,.7871-.0059,1.1797-.0264,.668-.0332,1.5664-.1592,2.1387,.2725,.0361,.0273,.0615,.0732,.0234,.1103-.5664,.5625-1.5527,.4248-2.2783,.4707-.5459,.0342-1.041,.2198-1.5664,.3565-.05178,.0156-.1035,.0254-.1553,.0381h1.1143c.4228-.0264,.8437-.0576,1.2646-.1055,.7539-.083,1.4922-.2334,2.2393-.3662Z"/>
                    <path class="cls-13" d="M3.4502,8.6895v.248c.2139-.0351,.4277-.0976,.6172-.1836-.208-.0078-.416-.0244-.6172-.0644Z"/>
                  </g>
                  <g>
                    <path class="cls-16" d="M10.249,4.8174c0,.5283-.3818,.957-.8535,.957-.4707,0-.8535-.4287-.8535-.957s.3828-.958,.8535-.958c.4717,0,.8535,.4297,.8535,.958Z"/>
                    <path class="cls-23" d="M9.3955,5.8242c-.498,0-.9043-.4511-.9043-1.0068s.4063-1.0078,.9043-1.0078c.4981,0,.9033,.4521,.9033,1.0078s-.4052,1.0068-.9033,1.0068Zm0-1.914c-.4434,0-.8027,.4062-.8027,.9072,0,.5,.3593,.9072,.8027,.9072s.8027-.4072,.8027-.9072c0-.501-.3593-.9072-.8027-.9072Z"/>
                  </g>
                  <g>
                    <path class="cls-28" d="M10.4619,5.2569c0,.5888-.4775,1.0654-1.0664,1.0654-.5879,0-1.0664-.4766-1.0664-1.0654,0-.5889,.4785-1.0664,1.0664-1.0664,.5889,0,1.0664,.4775,1.0664,1.0664Z"/>
                    <path class="cls-30" d="M9.3955,6.3731c-.6152,0-1.1162-.5-1.1162-1.1162s.501-1.1162,1.1162-1.1162,1.11622,.5,1.11622,1.1162-.501,1.1162-1.11622,1.1162Zm0-2.1328c-.5596,0-1.0156,.456-1.0156,1.0166,0,.5595,.456,1.0146,1.0156,1.0146,.5606,0,1.0156-.4551,1.0156-1.0146,0-.5606-.455-1.0166-1.0156-1.0166Z"/>
                  </g>
                  <g>
                    <path class="cls-16" d="M10.4619,5.4776c0,.5654-.4775,1.0224-1.0664,1.0224-.5879,0-1.0664-.457-1.0664-1.0224,0-.5645,.4785-1.0225,1.0664-1.0225,.5889,0,1.0664,.458,1.0664,1.0225Z"/>
                    <path class="cls-23" d="M9.3955,6.5498c-.6152,0-1.1162-.4814-1.1162-1.0722,0-.5918,.501-1.0733,1.1162-1.0733s1.11622,.4815,1.11622,1.0733c0,.5908-.501,1.0722-1.11622,1.0722Zm0-2.0439c-.5596,0-1.0156,.4355-1.0156,.9717,0,.5361,.456,.9716,1.0156,.9716,.5606,0,1.0156-.4355,1.0156-.9716,0-.5362-.455-.9717-1.0156-.9717Z"/>
                  </g>
                  <path class="cls-6" d="M9.3955,4.4551c-.5879,0-1.0664,.458-1.0664,1.0225,0,.5654,.4785,1.0224,1.0664,1.0224,.5889,0,1.0664-.457,1.0664-1.0224,0-.5645-.4775-1.0225-1.0664-1.0225Zm-.1045,1.7393c-.4131,0-.749-.3213-.749-.7168,0-.3965,.3359-.7178,.749-.7178s.7481,.3213,.7481,.7178c0,.3955-.335,.7168-.7481,.7168Z"/>
                  <path class="cls-17" d="M9.3955,5.1914c0,.1543-.126,.2813-.2812,.2813-.1543,0-.2813-.127-.2813-.2813,0-.1562,.127-.2812,.2813-.2812,.1552,0,.2812,.125,.2812,.2812Z"/>
                  <path class="cls-17" d="M8.8818,5.5254c0,.0528-.042,.0938-.0947,.0938s-.0947-.041-.0947-.0938c0-.0527,.042-.0957,.0947-.0957s.0947,.043,.0947,.0957Z"/>
                  <path class="cls-8" d="M13.458,3.502s1.1445,.041,1.3164,.6465c.1738,.6054,0,3.8174,0,3.8174,0,0,.0645,1.0039-1.6953,1.0761H4.4072s-.957,.0459-.957-1.0761v1.3906H15.3408V3.502h-1.8828Z"/>
                  <path class="cls-14" d="M3.7588,7.9659V3.668h5.0742s-4.57028-.1514-4.7656,.751c-.1934,.9023-.3086,3.5469-.3086,3.5469Z"/>
                </g>
              </g>
              <g>
                <rect class="cls-16" x=".0498" y=".9825" width="18.6895" height=".9316"/>
                <path class="cls-23" d="M18.7393,1.9649H.0498C.0225,1.9649,0,1.9414,0,1.9141V.9825C0,.9551,.0225,.9317,.0498,.9317H18.7393c.0283,0,.0507,.0234,.0507,.0508v.9316c0,.0273-.0224,.0508-.0507,.0508ZM.1006,1.8633H18.6904v-.8301H.1006v.8301Z"/>
              </g>
              <g>
                <rect class="cls-16" x=".0498" y=".9825" width="18.6895" height=".9316"/>
                <path class="cls-23" d="M18.7393,1.9649H.0498C.0225,1.9649,0,1.9414,0,1.9141V.9825C0,.9551,.0225,.9317,.0498,.9317H18.7393c.0283,0,.0507,.0234,.0507,.0508v.9316c0,.0273-.0224,.0508-.0507,.0508ZM.1006,1.8633H18.6904v-.8301H.1006v.8301Z"/>
              </g>
              <path class="cls-5" d="M.0498,.9825v.9316H18.7393V.9825H.0498Zm17.459,.6298H.2246v-.3281H17.5088v.3281Z"/>
              <g>
                <polygon class="cls-18" points="18.7393 .9825 .0498 .9825 .4766 .0508 18.3135 .0508 18.7393 .9825"/>
                <path class="cls-23" d="M18.7393,1.0332H.0498c-.0166,0-.0322-.0097-.042-.0234-.0088-.0147-.0107-.0332-.0029-.0488L.43072,.0293c.00878-.0176,.02728-.0293,.04588-.0293H18.3135c.0195,0,.0371,.0117,.0449,.0293l.4268,.9317c.0068,.0156,.0068,.0341-.003,.0488-.0097,.0137-.0254,.0234-.0429,.0234ZM.1279,.9317H18.6611l-.3808-.8321H.5088L.1279,.9317Z"/>
              </g>
              <path class="cls-9" d="M17.0381,.0508c-.3076,.044-.6133,.082-.9102,.125-1.6767,.2363-3.332,.2949-5.0234,.3115-1.88578,.0166-3.7725-.0156-5.6563,.0313-1.7519,.043-3.5019,.1377-5.2548,.1514L.0498,.9825H18.7393l-.4258-.9317h-1.2754Z"/>
              <polygon class="cls-12" points="2.6328 2.1582 1.2314 2.1582 1.4853 17.5391 1.4853 2.3604 2.6328 2.1582"/>
            </g>
          </g>
        </g>
      </g>
    </g>
  </g>
</svg>